<?xml version="1.0" encoding="UTF-8"?>
<svg id="Calque_1" xmlns="http://www.w3.org/2000/svg" viewBox="0 0 150.16 35.41">
  <defs>
    <style>
      .cls-1 { fill: #fff; }
      .cls-2 { fill: #af66e8; }
    </style>
  </defs>
  <g>
    <g>
      <path class="cls-1" d="M62.62,19.79h-2.37l-9.52-14.43v14.43h-2.37V1.64h2.37l9.52,14.41V1.64h2.37v18.15Z"/>
      <path class="cls-1" d="M79.58,13.55h-11.39c.09,1.4.57,2.5,1.44,3.29.87.79,1.94,1.18,3.19,1.18,1.02,0,1.88-.24,2.56-.72.68-.48,1.17-1.11,1.44-1.91h2.55c-.38,1.37-1.14,2.48-2.29,3.34-1.14.86-2.57,1.29-4.27,1.29-1.35,0-2.56-.3-3.63-.91s-1.9-1.47-2.51-2.59c-.61-1.12-.91-2.41-.91-3.89s.29-2.77.88-3.87,1.42-1.96,2.48-2.56,2.29-.9,3.68-.9,2.55.29,3.59.88c1.04.59,1.84,1.4,2.41,2.43.56,1.03.85,2.2.85,3.5,0,.45-.03.93-.08,1.43ZM76.61,9.3c-.4-.65-.94-1.14-1.63-1.48s-1.44-.51-2.28-.51c-1.2,0-2.22.38-3.06,1.14-.84.76-1.32,1.82-1.44,3.17h9c0-.9-.2-1.68-.6-2.33Z"/>
      <path class="cls-1" d="M90.21,19.79l-3.38-5.31-3.25,5.31h-2.47l4.6-7.07-4.6-7.18h2.68l3.38,5.28,3.23-5.28h2.47l-4.58,7.05,4.6,7.2h-2.68Z"/>
      <path class="cls-1" d="M98.12,7.49v8.4c0,.69.15,1.18.44,1.47s.81.43,1.53.43h1.74v2h-2.13c-1.32,0-2.31-.3-2.96-.91-.66-.61-.99-1.6-.99-2.99V7.49h-1.85v-1.95h1.85V1.95h2.37v3.59h3.72v1.95h-3.72Z"/>
      <path class="cls-2" d="M107.07,17.87h6.35v1.92h-8.71V1.66h2.37v16.2Z"/>
      <path class="cls-2" d="M116.01,2.76c-.31-.31-.47-.69-.47-1.14s.16-.83.47-1.14.69-.47,1.14-.47.8.16,1.11.47c.3.31.45.69.45,1.14s-.15.83-.45,1.14c-.3.31-.67.47-1.11.47s-.83-.16-1.14-.47ZM118.3,5.54v14.25h-2.37V5.54h2.37Z"/>
      <path class="cls-2" d="M133.49,6.85c1.08,1.05,1.61,2.56,1.61,4.54v8.4h-2.34v-8.06c0-1.42-.36-2.51-1.07-3.26-.71-.75-1.68-1.13-2.91-1.13s-2.24.39-2.98,1.17c-.74.78-1.11,1.92-1.11,3.41v7.88h-2.37V5.54h2.37v2.03c.47-.73,1.11-1.29,1.91-1.69.81-.4,1.69-.6,2.67-.6,1.73,0,3.14.52,4.21,1.57Z"/>
      <path class="cls-2" d="M146.94,19.79l-5.59-6.29v6.29h-2.37V.55h2.37v11.31l5.49-6.32h3.3l-6.71,7.1,6.74,7.15h-3.23Z"/>
    </g>
    <g>
      <path class="cls-1" d="M5.88,2.01c-1.35-1.35-3.53-1.35-4.87,0-1.35,1.35-1.35,3.53,0,4.87h0l11.32,11.29L1.01,29.47c-1.35,1.35-1.35,3.53,0,4.87,1.35,1.35,3.53,1.35,4.87,0h0l13.73-13.73c1.35-1.33,1.35-3.51.02-4.85,0,0-.01-.01-.02-.02L5.88,2.01Z"/>
      <path class="cls-2" d="M30.96,1.03c-1.9,0-3.43,1.54-3.43,3.43h0v27.45c0,1.9,1.54,3.43,3.43,3.43,1.89,0,3.43-1.54,3.43-3.43V4.47c0-1.9-1.54-3.43-3.43-3.43Z"/>
    </g>
  </g>
  <g>
    <path class="cls-1" d="M49.89,35.05c-.49-.22-.87-.54-1.15-.94-.28-.4-.43-.85-.45-1.34h1.04c.05.48.26.89.63,1.25.37.36.92.54,1.64.54.66,0,1.19-.17,1.57-.51s.58-.77.58-1.29c0-.42-.11-.76-.32-1.01-.21-.26-.48-.45-.8-.57-.32-.13-.76-.26-1.32-.41-.65-.18-1.17-.35-1.55-.52-.38-.17-.71-.43-.98-.78s-.41-.83-.41-1.44c0-.5.13-.95.39-1.35.26-.4.63-.71,1.11-.93s1.02-.34,1.64-.34c.9,0,1.63.22,2.19.66.55.44.87,1.01.96,1.71h-1.06c-.07-.4-.28-.76-.66-1.07-.37-.31-.88-.47-1.51-.47-.59,0-1.08.16-1.47.47-.39.31-.59.74-.59,1.28,0,.41.11.74.32.99s.48.44.8.57c.32.13.76.27,1.31.42.63.18,1.15.35,1.54.52.39.17.72.44.99.79s.41.83.41,1.43c0,.46-.12.89-.36,1.3-.24.41-.6.74-1.08.99-.48.25-1.04.38-1.71.38s-1.21-.11-1.7-.34Z"/>
    <path class="cls-1" d="M57.9,28.48v4.74c0,.47.09.79.27.97s.49.27.94.27h.9v.84h-1.05c-.69,0-1.2-.16-1.54-.48s-.5-.85-.5-1.59v-4.74h-1.06v-.83h1.06v-1.92h.99v1.92h2.1v.83h-2.1Z"/>
    <path class="cls-1" d="M68.23,27.65v7.64h-.98v-1.34c-.22.48-.57.84-1.04,1.09-.47.25-.99.38-1.57.38-.91,0-1.66-.28-2.24-.85-.58-.56-.87-1.38-.87-2.46v-4.46h.97v4.35c0,.83.21,1.46.62,1.9.41.44.98.66,1.7.66s1.32-.23,1.76-.7c.44-.47.66-1.15.66-2.06v-4.16h.98Z"/>
    <path class="cls-1" d="M70.49,29.39c.32-.59.75-1.05,1.31-1.37s1.18-.48,1.88-.48,1.28.16,1.82.49c.54.33.94.75,1.19,1.27v-4.37h.98v10.35h-.98v-1.71c-.23.53-.62.97-1.15,1.31s-1.16.51-1.87.51-1.33-.16-1.88-.49c-.55-.33-.99-.79-1.3-1.39-.31-.6-.47-1.29-.47-2.07s.16-1.47.48-2.06ZM76.31,29.85c-.25-.47-.59-.83-1.03-1.08-.43-.25-.91-.38-1.43-.38s-1.03.12-1.46.36c-.43.24-.77.59-1.01,1.06-.25.46-.37,1.01-.37,1.64s.12,1.17.37,1.64c.25.47.59.83,1.01,1.08.43.25.91.37,1.46.37s1-.13,1.43-.38c.43-.25.78-.61,1.03-1.08.25-.47.38-1.01.38-1.62s-.13-1.16-.38-1.62Z"/>
    <path class="cls-1" d="M79.9,26c-.14-.14-.21-.31-.21-.52s.07-.38.21-.51c.14-.14.31-.2.5-.2s.36.07.5.2c.14.14.21.31.21.51s-.07.38-.21.52-.31.21-.5.21-.36-.07-.5-.21ZM80.89,27.65v7.64h-.98v-7.64h.98Z"/>
    <path class="cls-1" d="M84.52,34.92c-.57-.32-1.03-.78-1.36-1.37-.33-.59-.5-1.28-.5-2.08s.17-1.49.5-2.08c.34-.59.79-1.05,1.37-1.37.58-.32,1.23-.48,1.94-.48s1.37.16,1.95.48c.58.32,1.04.78,1.37,1.37.33.59.5,1.29.5,2.08s-.17,1.47-.5,2.07c-.34.6-.8,1.06-1.38,1.38-.59.32-1.24.48-1.96.48s-1.36-.16-1.94-.48ZM87.86,34.2c.43-.23.78-.57,1.04-1.04.27-.46.4-1.03.4-1.7s-.13-1.24-.39-1.7-.61-.81-1.04-1.04c-.43-.23-.9-.34-1.4-.34s-.97.11-1.4.34c-.43.23-.77.57-1.03,1.04-.26.46-.38,1.03-.38,1.7s.13,1.24.38,1.7c.26.46.6.81,1.02,1.04s.89.34,1.39.34.97-.11,1.4-.34Z"/>
  </g>
</svg>
