<?xml version="1.0" encoding="UTF-8"?>
<svg id="Calque_1" data-name="Calque 1" xmlns="http://www.w3.org/2000/svg" width="497.33" height="480.43" viewBox="0 0 497.33 480.43">
  <g>
    <g>
      <path d="M11.13,363.78v27.55c0,1,.08,1.74.24,2.23.16.48.49.8.99.96.5.16,1.23.24,2.2.24h2.05c3.13,0,5.83-.84,8.12-2.53,2.29-1.68,3.81-3.93,4.57-6.74.04-.12.16-.16.36-.12.2.04.3.12.3.24-.12,1.32-.24,2.92-.36,4.78-.12,1.86-.18,3.58-.18,5.14,0,.6-.3.9-.9.9H.12c-.08,0-.12-.12-.12-.36s.04-.36.12-.36c1.24,0,2.17-.1,2.77-.3.6-.2,1.01-.6,1.23-1.2.22-.6.33-1.48.33-2.65v-27.85c0-1.16-.11-2.04-.33-2.62-.22-.58-.63-.98-1.23-1.2-.6-.22-1.52-.33-2.77-.33-.08,0-.12-.12-.12-.36s.04-.36.12-.36c.96,0,2.11.03,3.46.09,1.34.06,2.74.09,4.18.09,1.52,0,2.93-.03,4.21-.09,1.28-.06,2.43-.09,3.43-.09.12,0,.18.12.18.36s-.06.36-.18.36c-1.2,0-2.12.11-2.74.33-.62.22-1.03.63-1.23,1.23-.2.6-.3,1.48-.3,2.65Z" fill="#243b2f"/>
      <path d="M45.24,397.16c-2.61,0-4.82-.54-6.65-1.62-1.83-1.08-3.21-2.52-4.15-4.3-.94-1.78-1.41-3.7-1.41-5.74,0-2.37.58-4.51,1.74-6.44,1.16-1.92,2.77-3.47,4.81-4.63,2.05-1.16,4.39-1.74,7.04-1.74,2.37,0,4.26.54,5.68,1.62,1.42,1.08,2.14,2.85,2.14,5.29,0,.52-.04.96-.12,1.32-.08.36-.26.54-.54.54h-5.77c.08-2.29-.14-4.12-.66-5.5-.52-1.38-1.52-2.08-3.01-2.08-1.6,0-2.88.82-3.82,2.47-.94,1.64-1.41,3.83-1.41,6.56,0,2.33.36,4.33,1.08,6.02.72,1.68,1.78,2.99,3.19,3.91,1.4.92,3.13,1.38,5.17,1.38,1.2,0,2.22-.15,3.04-.45.82-.3,1.73-.71,2.74-1.23.08-.08.19-.04.33.12.14.16.17.3.09.42-1.48,1.48-3,2.54-4.54,3.16-1.54.62-3.2.93-4.96.93ZM36.99,381.52l-.06-1.14,13.17-.24v1.32l-13.11.06Z" fill="#243b2f"/>
      <path d="M63.34,376.11c0,.84.23,1.59.69,2.26.46.66,1.05,1.26,1.77,1.8.72.54,1.5,1.07,2.35,1.59,1,.56,1.99,1.15,2.95,1.77.96.62,1.76,1.37,2.41,2.26.64.88.96,2.03.96,3.43,0,1.28-.33,2.54-.99,3.76-.66,1.22-1.65,2.22-2.98,2.98-1.32.76-2.99,1.14-4.99,1.14-1,0-2.01-.11-3.01-.33-1-.22-2.09-.65-3.25-1.29-.08-.08-.16-.18-.24-.3-.08-.12-.12-.26-.12-.42l-.12-5.96c0-.12.11-.19.33-.21.22-.02.35.01.39.09.44,1.28,1.06,2.48,1.86,3.58.8,1.1,1.71,1.98,2.74,2.65s2.05.99,3.1.99c.8,0,1.46-.25,1.98-.75.52-.5.78-1.27.78-2.32,0-1.12-.25-2.05-.75-2.8-.5-.74-1.13-1.38-1.9-1.93-.76-.54-1.54-1.03-2.35-1.47-.92-.52-1.85-1.06-2.77-1.62-.92-.56-1.68-1.27-2.29-2.14-.6-.86-.9-1.99-.9-3.4,0-1.68.42-3.03,1.26-4.03.84-1,1.93-1.72,3.28-2.17,1.34-.44,2.74-.66,4.18-.66.88,0,1.69.06,2.44.18.74.12,1.59.36,2.56.72.36.12.54.34.54.66,0,.8-.02,1.63-.06,2.5-.04.86-.06,1.82-.06,2.86,0,.12-.12.18-.36.18s-.36-.06-.36-.18c0-.76-.31-1.58-.93-2.47-.62-.88-1.43-1.65-2.44-2.32-1-.66-2.09-.99-3.25-.99-.56,0-1.11.14-1.65.42-.54.28-.81.92-.81,1.92Z" fill="#243b2f"/>
      <path d="M108.52,358.84c.12,0,.18.12.18.36s-.06.36-.18.36c-1,0-1.77.12-2.29.36-.52.24-.86.66-1.02,1.26-.16.6-.24,1.48-.24,2.65v32.84c0,4.49-1.11,8-3.34,10.53-2.23,2.53-5.32,3.79-9.29,3.79-1.48,0-2.72-.31-3.7-.93-.98-.62-1.47-1.51-1.47-2.68,0-.72.24-1.41.72-2.08.48-.66,1.28-.99,2.41-.99.96,0,1.7.27,2.23.81.52.54.93,1.17,1.23,1.9.3.72.58,1.35.84,1.89.26.54.63.81,1.11.81.84,0,1.46-.67,1.86-2.02.4-1.34.6-3.62.6-6.83v-37.18c0-1.16-.12-2.04-.36-2.62-.24-.58-.72-.98-1.44-1.2-.72-.22-1.8-.33-3.25-.33-.08,0-.12-.12-.12-.36s.04-.36.12-.36c1.24,0,2.57.03,3.97.09,1.4.06,2.87.09,4.39.09,1.4,0,2.7-.03,3.88-.09,1.18-.06,2.24-.09,3.16-.09Z" fill="#243b2f"/>
      <path d="M117.9,396.86c-1.77,0-3.08-.39-3.94-1.17-.86-.78-1.29-1.83-1.29-3.16s.36-2.34,1.08-3.04c.72-.7,1.66-1.26,2.83-1.68,1.16-.42,2.37-.85,3.61-1.29l6.02-2.23.24.9-3.43,1.56c-.32.12-.78.31-1.38.57-.6.26-1.14.64-1.62,1.14-.48.5-.72,1.21-.72,2.14,0,1.04.34,1.81,1.02,2.32.68.5,1.36.75,2.05.75.32,0,.63-.04.93-.12.3-.08.65-.26,1.05-.54l3.01-2.05.06.96-4.21,3.01c-.88.68-1.72,1.17-2.53,1.47-.8.3-1.72.45-2.77.45ZM129.45,396.8c-.16.08-.36.12-.6.12-.72,0-1.44-.48-2.17-1.44-.72-.96-1.08-2.35-1.08-4.15v-10.23c0-2.53-.2-4.38-.6-5.56-.4-1.18-1.12-1.77-2.17-1.77s-1.75.31-2.26.93c-.5.62-.84,1.31-1.02,2.08-.18.76-.29,1.4-.33,1.93-.12,1.24-.48,2.12-1.08,2.62-.6.5-1.4.75-2.41.75s-1.78-.22-2.23-.66c-.44-.44-.66-.98-.66-1.62,0-.96.43-1.87,1.29-2.74.86-.86,1.95-1.62,3.28-2.29,1.32-.66,2.7-1.18,4.12-1.56,1.42-.38,2.68-.57,3.76-.57,1.64,0,3.05.52,4.21,1.56,1.16,1.04,1.74,2.75,1.74,5.11v10.65c0,1.16.21,2.07.63,2.71.42.64,1.01.96,1.77.96.56,0,1.14-.14,1.74-.42.16-.08.29,0,.39.21.1.22.05.37-.15.45l-6.2,2.95Z" fill="#243b2f"/>
      <path d="M137.93,396.44c-.12,0-.18-.12-.18-.36s.06-.36.18-.36c1.24,0,2.08-.29,2.53-.87.44-.58.66-1.67.66-3.28v-11.31c0-1.24-.14-2.16-.42-2.74-.28-.58-.76-.87-1.44-.87-.36,0-.78.07-1.26.21-.48.14-1.02.35-1.62.63-.16.08-.28,0-.36-.24-.08-.24-.08-.38,0-.42l8.36-4.09c.24-.08.38-.12.42-.12.44,0,.88.48,1.32,1.44.44.96.66,2.35.66,4.15v13.35c0,1.04.16,1.88.48,2.5.32.62.87,1.05,1.65,1.29.78.24,1.85.36,3.22.36.16,0,.24.12.24.36s-.08.36-.24.36c-1.08,0-2.32-.02-3.7-.06-1.38-.04-2.88-.06-4.48-.06-1.12,0-2.21.02-3.25.06-1.04.04-1.97.06-2.77.06ZM145.27,380.14l-.48-.78c1.56-1.8,2.89-3.19,3.97-4.15,1.08-.96,2.01-1.63,2.77-2.02.76-.38,1.44-.57,2.05-.57.84,0,1.71.31,2.62.93.9.62,1.35,1.43,1.35,2.44,0,.84-.25,1.53-.75,2.08-.5.54-1.19.81-2.08.81s-1.47-.22-1.9-.66c-.42-.44-.8-.87-1.14-1.29-.34-.42-.83-.63-1.47-.63-.28,0-.59.09-.93.27-.34.18-.82.54-1.44,1.08-.62.54-1.47,1.37-2.56,2.5Z" fill="#243b2f"/>
      <path d="M169.03,397.22c-1.72,0-3.3-.46-4.72-1.38-1.42-.92-2.57-2.26-3.43-4-.86-1.74-1.29-3.86-1.29-6.35s.44-4.5,1.32-6.17c.88-1.66,2.02-3,3.4-4,1.38-1,2.88-1.73,4.48-2.2,1.6-.46,3.13-.69,4.57-.69s2.79.18,4.03.54c1.24.36,2.37.8,3.37,1.32l-1.38,4.87c-.84-1.8-1.8-3.12-2.89-3.94-1.08-.82-2.43-1.23-4.03-1.23-2.05,0-3.67.71-4.87,2.14-1.2,1.42-1.8,3.9-1.8,7.43,0,2.29.28,4.23.84,5.83.56,1.6,1.34,2.83,2.35,3.67,1,.84,2.13,1.26,3.37,1.26,1.6,0,3.01-.44,4.21-1.32,1.2-.88,2.37-1.94,3.49-3.19l.6.54c-.84.96-1.83,1.98-2.98,3.04-1.14,1.06-2.43,1.97-3.85,2.71-1.42.74-3.02,1.11-4.78,1.11ZM183.71,353.61v35.85c0,1.36.13,2.33.39,2.89.26.56.69.84,1.29.84.28,0,.63-.06,1.05-.18.42-.12.89-.28,1.41-.48.12-.08.24,0,.36.21.12.22.14.37.06.45l-8.3,4.03c-.12.04-.22.06-.3.06-.4,0-.77-.5-1.11-1.5-.34-1-.51-2.43-.51-4.27v-30.5c0-1.36-.12-2.36-.36-2.98-.24-.62-.7-.93-1.38-.93-.28,0-.61.06-.99.18-.38.12-.79.28-1.23.48-.16.04-.3-.06-.42-.3s-.14-.38-.06-.42l8.84-4.15c.08-.04.16-.06.24-.06.2,0,.42.09.66.27.24.18.36.35.36.51Z" fill="#243b2f"/>
      <path d="M190.69,396.44c-.12,0-.18-.12-.18-.36s.06-.36.18-.36c1.24,0,2.08-.29,2.53-.87.44-.58.66-1.67.66-3.28v-10.77c0-1.32-.13-2.3-.39-2.92-.26-.62-.73-.93-1.41-.93-.28,0-.61.06-.99.18-.38.12-.79.28-1.23.48-.16.04-.29-.06-.39-.3-.1-.24-.09-.38.03-.42l9.08-4.21c.08-.04.14-.06.18-.06.2,0,.4.1.6.3.2.2.3.38.3.54,0,.48-.02,1.28-.06,2.41-.04,1.12-.06,2.73-.06,4.81v10.89c0,1.6.23,2.7.69,3.28.46.58,1.31.87,2.56.87.12,0,.18.12.18.36s-.06.36-.18.36c-.8,0-1.72-.02-2.77-.06-1.04-.04-2.15-.06-3.31-.06s-2.21.02-3.25.06c-1.04.04-1.97.06-2.77.06ZM196.46,366.66c-1.12,0-2.02-.32-2.68-.96-.66-.64-.99-1.54-.99-2.71,0-1.04.33-1.87.99-2.5.66-.62,1.55-.93,2.68-.93s1.99.31,2.59.93c.6.62.9,1.45.9,2.5,0,2.45-1.16,3.67-3.49,3.67Z" fill="#243b2f"/>
      <path d="M206.51,396.44c-.12,0-.18-.12-.18-.36s.06-.36.18-.36c1.24,0,2.08-.29,2.53-.87.44-.58.66-1.67.66-3.28v-11.31c0-1.24-.14-2.16-.42-2.74-.28-.58-.76-.87-1.44-.87-.36,0-.78.07-1.26.21-.48.14-1.02.35-1.62.63-.16.08-.28,0-.36-.24-.08-.24-.08-.38,0-.42l8.36-4.09c.24-.08.38-.12.42-.12.44,0,.88.48,1.32,1.44.44.96.66,2.35.66,4.15v13.35c0,1.6.23,2.7.69,3.28.46.58,1.31.87,2.56.87.12,0,.18.12.18.36s-.06.36-.18.36c-.8,0-1.72-.02-2.77-.06-1.04-.04-2.15-.06-3.31-.06s-2.21.02-3.25.06c-1.04.04-1.97.06-2.77.06ZM222.69,396.44c-.12,0-.18-.12-.18-.36s.06-.36.18-.36c1.24,0,2.08-.29,2.53-.87.44-.58.66-1.67.66-3.28v-8.66c0-2.17-.39-3.77-1.17-4.81-.78-1.04-2.02-1.56-3.7-1.56-1.2,0-2.44.3-3.7.9-1.26.6-2.28,1.42-3.04,2.47l-.3-.72c1.4-2,2.99-3.62,4.75-4.84,1.76-1.22,3.69-1.83,5.77-1.83,2.25,0,3.98.7,5.2,2.11,1.22,1.4,1.83,3.21,1.83,5.41v11.55c0,1.6.23,2.7.69,3.28.46.58,1.31.87,2.56.87.12,0,.18.12.18.36s-.06.36-.18.36c-.8,0-1.72-.02-2.77-.06-1.04-.04-2.15-.06-3.31-.06s-2.21.02-3.25.06c-1.04.04-1.97.06-2.77.06Z" fill="#243b2f"/>
      <path d="M242.9,376.11c0,.84.23,1.59.69,2.26.46.66,1.05,1.26,1.77,1.8.72.54,1.5,1.07,2.35,1.59,1,.56,1.99,1.15,2.95,1.77.96.62,1.76,1.37,2.41,2.26.64.88.96,2.03.96,3.43,0,1.28-.33,2.54-.99,3.76-.66,1.22-1.65,2.22-2.98,2.98-1.32.76-2.99,1.14-4.99,1.14-1,0-2.01-.11-3.01-.33-1-.22-2.09-.65-3.25-1.29-.08-.08-.16-.18-.24-.3-.08-.12-.12-.26-.12-.42l-.12-5.96c0-.12.11-.19.33-.21.22-.02.35.01.39.09.44,1.28,1.06,2.48,1.86,3.58.8,1.1,1.71,1.98,2.74,2.65,1.02.66,2.05.99,3.1.99.8,0,1.46-.25,1.99-.75.52-.5.78-1.27.78-2.32,0-1.12-.25-2.05-.75-2.8-.5-.74-1.13-1.38-1.9-1.93-.76-.54-1.54-1.03-2.35-1.47-.92-.52-1.84-1.06-2.77-1.62-.92-.56-1.68-1.27-2.29-2.14-.6-.86-.9-1.99-.9-3.4,0-1.68.42-3.03,1.26-4.03.84-1,1.93-1.72,3.28-2.17,1.34-.44,2.74-.66,4.18-.66.88,0,1.69.06,2.44.18.74.12,1.59.36,2.56.72.36.12.54.34.54.66,0,.8-.02,1.63-.06,2.5-.04.86-.06,1.82-.06,2.86,0,.12-.12.18-.36.18s-.36-.06-.36-.18c0-.76-.31-1.58-.93-2.47-.62-.88-1.43-1.65-2.44-2.32-1-.66-2.09-.99-3.25-.99-.56,0-1.11.14-1.65.42-.54.28-.81.92-.81,1.92Z" fill="#243b2f"/>
      <path d="M281.52,397.22c-1.72,0-3.3-.46-4.72-1.38-1.42-.92-2.57-2.26-3.43-4-.86-1.74-1.29-3.86-1.29-6.35s.44-4.5,1.32-6.17c.88-1.66,2.02-3,3.4-4,1.38-1,2.88-1.73,4.48-2.2,1.6-.46,3.13-.69,4.57-.69s2.79.18,4.03.54c1.24.36,2.37.8,3.37,1.32l-1.38,4.87c-.84-1.8-1.8-3.12-2.89-3.94-1.08-.82-2.43-1.23-4.03-1.23-2.05,0-3.67.71-4.87,2.14-1.2,1.42-1.8,3.9-1.8,7.43,0,2.29.28,4.23.84,5.83.56,1.6,1.34,2.83,2.35,3.67,1,.84,2.13,1.26,3.37,1.26,1.6,0,3.01-.44,4.21-1.32,1.2-.88,2.37-1.94,3.49-3.19l.6.54c-.84.96-1.83,1.98-2.98,3.04-1.14,1.06-2.43,1.97-3.85,2.71-1.42.74-3.02,1.11-4.78,1.11ZM296.2,353.61v35.85c0,1.36.13,2.33.39,2.89.26.56.69.84,1.29.84.28,0,.63-.06,1.05-.18.42-.12.89-.28,1.41-.48.12-.08.24,0,.36.21.12.22.14.37.06.45l-8.3,4.03c-.12.04-.22.06-.3.06-.4,0-.77-.5-1.11-1.5-.34-1-.51-2.43-.51-4.27v-30.5c0-1.36-.12-2.36-.36-2.98-.24-.62-.7-.93-1.38-.93-.28,0-.61.06-.99.18-.38.12-.79.28-1.23.48-.16.04-.3-.06-.42-.3s-.14-.38-.06-.42l8.84-4.15c.08-.04.16-.06.24-.06.2,0,.42.09.66.27.24.18.36.35.36.51Z" fill="#6a7f50"/>
      <path d="M312.38,397.16c-2.21,0-3.94-.7-5.2-2.11-1.26-1.4-1.9-3.21-1.9-5.41v-8.84c0-1.32-.15-2.31-.45-2.95-.3-.64-.77-.96-1.41-.96-.44,0-.94.14-1.5.42-.16.04-.29-.06-.39-.3-.1-.24-.09-.38.03-.42l8.06-3.85c.12-.04.22-.06.3-.06.2,0,.41.09.63.27.22.18.33.35.33.51v13.29c0,2.17.41,3.79,1.23,4.87.82,1.08,2.08,1.62,3.76,1.62,1.16,0,2.33-.33,3.49-.99,1.16-.66,2.08-1.49,2.77-2.5l.36.72c-1.36,1.97-2.89,3.57-4.57,4.81-1.68,1.24-3.53,1.86-5.53,1.86ZM326.57,373.46v16c0,1.36.13,2.33.39,2.89.26.56.69.84,1.29.84.28,0,.63-.06,1.05-.18.42-.12.89-.28,1.41-.48.16-.08.3,0,.42.21.12.22.12.37,0,.45l-8.3,4.03c-.08.04-.18.06-.3.06-.4,0-.76-.5-1.08-1.5-.32-1-.48-2.43-.48-4.27v-10.71c0-1.32-.15-2.31-.45-2.95-.3-.64-.77-.96-1.41-.96-.44,0-.96.14-1.56.42-.12.04-.23-.06-.33-.3-.1-.24-.09-.38.03-.42l8.06-3.85c.08-.04.18-.06.3-.06.2,0,.41.09.63.27.22.18.33.35.33.51Z" fill="#6a7f50"/>
      <path d="M370.97,358.18c1.2,0,2.46.06,3.76.18,1.3.12,2.54.3,3.7.54,1.16.24,2.14.54,2.95.9.36.12.59.27.69.45.1.18.17.49.21.93l.78,8.36c0,.12-.1.2-.3.24-.2.04-.34-.02-.42-.18-1.12-3.25-2.72-5.75-4.78-7.52-2.07-1.76-4.58-2.65-7.55-2.65-2.73,0-5.16.73-7.31,2.2-2.15,1.46-3.83,3.54-5.05,6.23-1.22,2.69-1.83,5.9-1.83,9.62,0,2.81.36,5.34,1.08,7.61.72,2.27,1.74,4.2,3.07,5.8,1.32,1.6,2.89,2.84,4.69,3.7,1.8.86,3.79,1.29,5.96,1.29,2.85,0,5.2-.77,7.07-2.32,1.86-1.54,3.62-4,5.26-7.37.08-.12.21-.16.39-.12.18.04.27.12.27.24l-.9,7.46c-.04.48-.11.79-.21.93-.1.14-.33.29-.69.45-1.92.68-3.84,1.18-5.74,1.5-1.91.32-3.72.48-5.44.48-4.33,0-8.18-.81-11.55-2.44-3.37-1.62-6.02-3.89-7.94-6.8-1.92-2.91-2.89-6.25-2.89-10.02,0-2.89.57-5.54,1.71-7.97,1.14-2.43,2.75-4.51,4.81-6.26,2.07-1.74,4.48-3.1,7.25-4.06,2.77-.96,5.75-1.44,8.96-1.44Z" fill="#6a7f50"/>
      <path d="M387.51,396.44c-.08,0-.12-.12-.12-.36s.04-.36.12-.36c1.24,0,2.1-.29,2.56-.87.46-.58.69-1.67.69-3.28v-30.56c0-1.36-.12-2.36-.36-2.98-.24-.62-.7-.93-1.38-.93-.56,0-1.32.22-2.29.66-.12.04-.24-.06-.36-.3s-.14-.38-.06-.42l8.78-4.15c.08-.04.14-.06.18-.06h.12c.2,0,.41.09.63.27.22.18.33.35.33.51v37.96c0,1.6.23,2.7.69,3.28.46.58,1.31.87,2.56.87.16,0,.24.12.24.36s-.08.36-.24.36c-.8,0-1.71-.02-2.74-.06-1.02-.04-2.12-.06-3.28-.06s-2.27.02-3.31.06c-1.04.04-1.97.06-2.77.06ZM403.69,396.44c-.08,0-.12-.12-.12-.36s.04-.36.12-.36c1.24,0,2.1-.29,2.56-.87.46-.58.69-1.67.69-3.28v-8.66c0-4.25-1.64-6.38-4.93-6.38-1.2,0-2.44.3-3.7.9s-2.26,1.42-2.98,2.47l-.36-.72c1.4-2,2.99-3.62,4.75-4.84,1.76-1.22,3.69-1.83,5.77-1.83,2.25,0,3.98.7,5.2,2.11,1.22,1.4,1.83,3.21,1.83,5.41v11.55c0,1.6.23,2.7.69,3.28.46.58,1.31.87,2.56.87.16,0,.24.12.24.36s-.08.36-.24.36c-.8,0-1.71-.02-2.74-.06-1.02-.04-2.12-.06-3.28-.06s-2.27.02-3.31.06c-1.04.04-1.97.06-2.77.06Z" fill="#6a7f50"/>
      <path d="M431,397.16c-2.61,0-4.82-.54-6.65-1.62-1.83-1.08-3.21-2.52-4.15-4.3-.94-1.78-1.41-3.7-1.41-5.74,0-2.37.58-4.51,1.74-6.44,1.16-1.92,2.77-3.47,4.81-4.63,2.05-1.16,4.39-1.74,7.04-1.74,2.37,0,4.26.54,5.68,1.62,1.42,1.08,2.14,2.85,2.14,5.29,0,.52-.04.96-.12,1.32-.08.36-.26.54-.54.54h-5.77c.08-2.29-.14-4.12-.66-5.5-.52-1.38-1.52-2.08-3.01-2.08-1.6,0-2.88.82-3.82,2.47-.94,1.64-1.41,3.83-1.41,6.56,0,2.33.36,4.33,1.08,6.02s1.78,2.99,3.19,3.91c1.4.92,3.13,1.38,5.17,1.38,1.2,0,2.22-.15,3.04-.45.82-.3,1.73-.71,2.74-1.23.08-.08.19-.04.33.12.14.16.17.3.09.42-1.48,1.48-3,2.54-4.54,3.16-1.54.62-3.2.93-4.96.93ZM422.76,381.52l-.06-1.14,13.17-.24v1.32l-13.11.06ZM435.75,367.81c.08.08.02.15-.18.21-.2.06-.34.03-.42-.09l-4.09-6.5-4.15,6.5c-.04.12-.17.15-.39.09-.22-.06-.31-.13-.27-.21l4.09-14.98c.04-.2.26-.3.66-.3s.64.1.72.3l4.03,14.98Z" fill="#6a7f50"/>
      <path d="M444.35,396.44c-.12,0-.18-.12-.18-.36s.06-.36.18-.36c1.24,0,2.08-.29,2.53-.87.44-.58.66-1.67.66-3.28v-11.31c0-1.24-.14-2.16-.42-2.74-.28-.58-.76-.87-1.44-.87-.36,0-.78.07-1.26.21-.48.14-1.02.35-1.62.63-.16.08-.28,0-.36-.24-.08-.24-.08-.38,0-.42l8.36-4.09c.24-.08.38-.12.42-.12.44,0,.88.48,1.32,1.44.44.96.66,2.35.66,4.15v13.35c0,1.6.23,2.7.69,3.28.46.58,1.31.87,2.56.87.12,0,.18.12.18.36s-.06.36-.18.36c-.8,0-1.72-.02-2.77-.06-1.04-.04-2.15-.06-3.31-.06s-2.21.02-3.25.06c-1.04.04-1.97.06-2.77.06ZM460.54,396.44c-.12,0-.18-.12-.18-.36s.06-.36.18-.36c1.24,0,2.08-.29,2.53-.87.44-.58.66-1.67.66-3.28v-8.66c0-2.17-.39-3.77-1.17-4.81-.78-1.04-2.02-1.56-3.7-1.56-1.2,0-2.44.3-3.7.9-1.26.6-2.28,1.42-3.04,2.47l-.3-.72c1.4-2,2.99-3.62,4.75-4.84,1.76-1.22,3.69-1.83,5.77-1.83,2.25,0,3.98.7,5.2,2.11,1.22,1.4,1.83,3.21,1.83,5.41v11.55c0,1.6.23,2.7.69,3.28.46.58,1.31.87,2.56.87.12,0,.18.12.18.36s-.06.36-.18.36c-.8,0-1.72-.02-2.77-.06-1.04-.04-2.15-.06-3.31-.06s-2.21.02-3.25.06c-1.04.04-1.97.06-2.77.06Z" fill="#6a7f50"/>
      <path d="M487.79,397.16c-2.61,0-4.82-.54-6.65-1.62-1.83-1.08-3.21-2.52-4.15-4.3-.94-1.78-1.41-3.7-1.41-5.74,0-2.37.58-4.51,1.74-6.44,1.16-1.92,2.77-3.47,4.81-4.63,2.05-1.16,4.39-1.74,7.04-1.74,2.37,0,4.26.54,5.68,1.62,1.42,1.08,2.14,2.85,2.14,5.29,0,.52-.04.96-.12,1.32-.08.36-.26.54-.54.54h-5.77c.08-2.29-.14-4.12-.66-5.5-.52-1.38-1.52-2.08-3.01-2.08-1.6,0-2.88.82-3.82,2.47-.94,1.64-1.41,3.83-1.41,6.56,0,2.33.36,4.33,1.08,6.02.72,1.68,1.78,2.99,3.19,3.91,1.4.92,3.13,1.38,5.17,1.38,1.2,0,2.22-.15,3.04-.45.82-.3,1.73-.71,2.74-1.23.08-.08.19-.04.33.12.14.16.17.3.09.42-1.48,1.48-3,2.54-4.54,3.16-1.54.62-3.2.93-4.96.93ZM479.54,381.52l-.06-1.14,13.17-.24v1.32l-13.11.06Z" fill="#6a7f50"/>
    </g>
    <g>
      <path d="M85.68,455.42c.06,0,.09.06.09.17s-.03.17-.09.17c-.48,0-.85.06-1.1.17-.25.12-.41.32-.49.61-.08.29-.12.71-.12,1.27v15.75c0,2.15-.53,3.84-1.6,5.05-1.07,1.21-2.55,1.82-4.46,1.82-.71,0-1.3-.15-1.77-.45-.47-.3-.71-.73-.71-1.28,0-.35.12-.68.35-1,.23-.32.62-.48,1.15-.48.46,0,.82.13,1.07.39.25.26.45.56.59.91.14.35.28.65.4.91.12.26.3.39.53.39.4,0,.7-.32.89-.97.19-.64.29-1.74.29-3.27v-17.83c0-.56-.06-.98-.17-1.26-.12-.28-.35-.47-.69-.58-.35-.11-.87-.16-1.56-.16-.04,0-.06-.06-.06-.17s.02-.17.06-.17c.6,0,1.23.01,1.9.04s1.38.04,2.11.04c.67,0,1.29-.01,1.86-.04.57-.03,1.07-.04,1.51-.04Z" fill="#243b2f"/>
      <path d="M108.85,473.1c.1,0,.14.06.14.17s-.05.17-.14.17c-.58,0-1.18-.02-1.8-.06-.63-.04-1.23-.06-1.8-.06-.65,0-1.22.02-1.7.06-.48.04-1.02.06-1.62.06-.08,0-.12-.06-.12-.17s.04-.17.12-.17c.79,0,1.25-.16,1.37-.48.12-.32-.05-.95-.53-1.89l-5.86-11.57,1.41-2.48-5.74,12.67c-.52,1.15-.53,2.07-.03,2.74.5.67,1.29,1.01,2.37,1.01.1,0,.14.06.14.17s-.05.17-.14.17c-.58,0-1.11-.02-1.59-.06-.48-.04-1.09-.06-1.82-.06s-1.35.02-1.8.06c-.45.04-1.01.06-1.66.06-.08,0-.12-.06-.12-.17s.04-.17.12-.17c.52,0,.97-.11,1.34-.33.37-.22.75-.62,1.13-1.21.37-.59.8-1.42,1.28-2.5l6.26-13.76c.02-.06.11-.09.26-.1.15,0,.24.02.26.1l7.21,14.2c.46.9.86,1.62,1.2,2.15.34.53.65.9.95,1.13.3.22.6.33.91.33ZM93.1,466.84l.43-.81h8.31l.2.81h-8.94Z" fill="#243b2f"/>
      <path d="M119.21,455.33c1.77,0,3.13.32,4.08.97.95.64,1.43,1.54,1.43,2.7s-.32,2.14-.95,3.02-1.45,1.55-2.44,2.03c-.99.48-2.03.72-3.13.72h-.82c-.28,0-.53,0-.76-.03v6.38c0,.56.05.98.14,1.27.1.29.29.48.58.58.29.1.73.14,1.33.14.04,0,.06.06.06.17s-.02.17-.06.17c-.5,0-1.06,0-1.67-.03-.62-.02-1.29-.03-2.02-.03-.69,0-1.35.01-1.98.03-.63.02-1.19.03-1.69.03-.06,0-.09-.06-.09-.17s.03-.17.09-.17c.6,0,1.04-.05,1.33-.14.29-.1.49-.29.59-.58.11-.29.16-.71.16-1.27v-13.36c0-.56-.05-.98-.14-1.26-.1-.28-.29-.47-.58-.58-.29-.11-.73-.16-1.33-.16-.04,0-.06-.06-.06-.17s.02-.17.06-.17c.5,0,1.06.01,1.67.04s1.27.04,1.96.04c.63,0,1.33-.03,2.09-.09.76-.06,1.48-.09,2.15-.09ZM121.43,460.09c0-1.13-.12-2-.35-2.6-.23-.6-.55-1-.95-1.23-.4-.22-.87-.33-1.38-.33-.77,0-1.32.14-1.64.43-.33.29-.49.77-.49,1.44v6.12c.27.04.56.07.87.09.31.02.58.03.81.03,1.13,0,1.94-.31,2.42-.94.48-.62.72-1.63.72-3.02ZM125.41,473.45c-.29,0-.75-.36-1.4-1.08-.64-.72-1.42-1.76-2.32-3.13-.9-1.37-1.92-3-3.06-4.91l2.65-.81c1.54,2.33,2.85,4.19,3.94,5.6,1.09,1.4,2.05,2.42,2.9,3.04.85.63,1.65.94,2.42.94.04,0,.06.06.06.17s-.02.17-.06.17h-5.14Z" fill="#243b2f"/>
      <path d="M140.96,473.56c-.62,0-1.38-.03-2.31-.09s-1.77-.09-2.54-.09c-.69,0-1.36.01-1.99.03-.63.02-1.2.03-1.7.03-.04,0-.06-.06-.06-.17s.02-.17.06-.17c.6,0,1.04-.05,1.34-.14.3-.1.5-.29.61-.58.11-.29.16-.71.16-1.27v-13.36c0-.56-.05-.98-.14-1.26-.1-.28-.29-.47-.59-.58-.3-.11-.74-.16-1.31-.16-.06,0-.09-.06-.09-.17s.03-.17.09-.17c.5,0,1.06.01,1.67.04.62.03,1.28.04,1.99.04s1.45-.02,2.28-.07c.83-.05,1.54-.07,2.14-.07,2,0,3.74.39,5.22,1.15,1.48.77,2.63,1.82,3.46,3.14.83,1.33,1.24,2.82,1.24,4.47,0,1.44-.25,2.75-.75,3.91-.5,1.16-1.19,2.15-2.08,2.97-.88.82-1.9,1.45-3.04,1.89-1.14.44-2.36.66-3.65.66ZM140.67,472.9c1.21,0,2.29-.31,3.23-.94.94-.62,1.68-1.54,2.22-2.76.54-1.21.81-2.69.81-4.44,0-1.63-.25-3.12-.75-4.44-.5-1.33-1.2-2.38-2.11-3.16-.9-.78-1.98-1.17-3.23-1.17-1.12,0-1.91.11-2.39.32-.48.21-.72.71-.72,1.5v12.98c0,.71.19,1.24.56,1.59.37.35,1.17.52,2.38.52Z" fill="#243b2f"/>
      <path d="M159.74,471.11c0,.56.05.98.14,1.27.1.29.29.48.58.58.29.1.73.14,1.33.14.06,0,.09.06.09.17s-.03.17-.09.17c-.5,0-1.06,0-1.67-.03-.62-.02-1.29-.03-2.02-.03-.69,0-1.36.01-1.99.03-.63.02-1.2.03-1.7.03-.04,0-.06-.06-.06-.17s.02-.17.06-.17c.6,0,1.04-.05,1.34-.14.3-.1.5-.29.61-.58.11-.29.16-.71.16-1.27v-13.36c0-.56-.05-.98-.16-1.26-.11-.28-.31-.47-.61-.58-.3-.11-.75-.16-1.34-.16-.04,0-.06-.06-.06-.17s.02-.17.06-.17c.5,0,1.07.01,1.7.04s1.3.04,1.99.04c.73,0,1.41-.01,2.03-.04.62-.03,1.18-.04,1.66-.04.06,0,.09.06.09.17s-.03.17-.09.17c-.58,0-1.02.06-1.31.17-.3.12-.5.32-.59.61-.1.29-.14.71-.14,1.27v13.3Z" fill="#243b2f"/>
      <path d="M182.74,473.88c0,.06-.04.09-.13.1-.09,0-.15,0-.19-.01l-14.22-16.19c-.69-.79-1.28-1.32-1.76-1.6-.48-.28-.96-.42-1.44-.42-.04,0-.06-.06-.06-.17s.02-.17.06-.17c.38,0,.78,0,1.18.03.4.02.78.03,1.13.03.69,0,1.32,0,1.88-.03.56-.02.99-.03,1.3-.03.25,0,.44.11.56.33s.42.61.88,1.17l10.59,12.2.23,4.76ZM168.02,469.78v-13.7l.87.06v13.65c0,1.02.21,1.83.64,2.42.42.6,1.01.89,1.76.89.04,0,.06.06.06.17s-.02.17-.06.17c-.42,0-.86,0-1.31-.03-.45-.02-.95-.03-1.49-.03-.58,0-1.14.01-1.69.03-.55.02-1.05.03-1.51.03-.06,0-.09-.06-.09-.17s.03-.17.09-.17c.85,0,1.51-.3,2.01-.89.49-.6.74-1.4.74-2.42ZM182.74,459.11v14.77l-.84-.87v-13.91c0-1.02-.21-1.83-.63-2.44-.42-.61-1.01-.91-1.76-.91-.04,0-.06-.06-.06-.17s.02-.17.06-.17c.42,0,.86.01,1.31.04.45.03.95.04,1.49.04s1.03-.01,1.53-.04c.5-.03.96-.04,1.38-.04.04,0,.06.06.06.17s-.02.17-.06.17c-.77,0-1.38.3-1.82.91-.44.61-.66,1.42-.66,2.44Z" fill="#243b2f"/>
      <path d="M193.41,471.11c0,.56.05.98.14,1.27.1.29.29.48.58.58.29.1.73.14,1.33.14.06,0,.09.06.09.17s-.03.17-.09.17c-.5,0-1.06,0-1.67-.03-.62-.02-1.29-.03-2.02-.03-.69,0-1.36.01-1.99.03-.63.02-1.2.03-1.7.03-.04,0-.06-.06-.06-.17s.02-.17.06-.17c.6,0,1.04-.05,1.34-.14.3-.1.5-.29.61-.58.11-.29.16-.71.16-1.27v-13.36c0-.56-.05-.98-.16-1.26-.11-.28-.31-.47-.61-.58-.3-.11-.75-.16-1.34-.16-.04,0-.06-.06-.06-.17s.02-.17.06-.17c.5,0,1.07.01,1.7.04s1.3.04,1.99.04c.73,0,1.41-.01,2.03-.04.62-.03,1.18-.04,1.66-.04.06,0,.09.06.09.17s-.03.17-.09.17c-.58,0-1.01.06-1.31.17-.3.12-.5.32-.59.61-.1.29-.14.71-.14,1.27v13.3Z" fill="#243b2f"/>
      <path d="M211.97,473.45h-12.75c-.06,0-.09-.06-.09-.17s.03-.17.09-.17c.6,0,1.04-.05,1.33-.14.29-.1.48-.29.58-.58.1-.29.14-.71.14-1.27v-13.36c0-.56-.05-.98-.14-1.26-.1-.28-.29-.47-.58-.58-.29-.11-.73-.16-1.33-.16-.06,0-.09-.06-.09-.17s.03-.17.09-.17h12.23c.19,0,.29.09.29.26l.06,3.84s-.05.07-.14.09c-.1.02-.16,0-.2-.06-.31-1.13-.83-1.97-1.56-2.5-.73-.53-1.69-.79-2.89-.79h-.87c-.39,0-.7.05-.95.16-.25.11-.43.27-.55.5-.12.23-.17.52-.17.87v13.21c0,.37.05.67.14.92.1.25.24.43.43.55.19.12.44.17.75.17h.95c1.5,0,2.7-.31,3.61-.92s1.57-1.57,1.99-2.86c.02-.06.08-.07.19-.04.11.03.16.06.16.1-.08.56-.14,1.22-.2,1.98-.06.76-.09,1.47-.09,2.12,0,.29-.14.43-.43.43ZM210.35,467.01c0-.79-.3-1.41-.89-1.86-.6-.45-1.47-.68-2.63-.68h-3.9v-.81h3.92c1.13,0,2-.2,2.58-.59.59-.39.88-.93.88-1.6,0-.06.05-.09.16-.09s.16.03.16.09c0,.63,0,1.13-.01,1.49,0,.36-.01.73-.01,1.11,0,.48.01.95.04,1.41s.04.97.04,1.53c0,.04-.06.06-.17.06s-.17-.02-.17-.06Z" fill="#243b2f"/>
      <path d="M224.34,455.33c1.77,0,3.13.32,4.08.97.95.64,1.43,1.54,1.43,2.7s-.32,2.14-.95,3.02c-.63.88-1.45,1.55-2.44,2.03-.99.48-2.03.72-3.13.72h-.82c-.28,0-.53,0-.76-.03v6.38c0,.56.05.98.14,1.27.1.29.29.48.58.58.29.1.73.14,1.33.14.04,0,.06.06.06.17s-.02.17-.06.17c-.5,0-1.06,0-1.67-.03-.62-.02-1.29-.03-2.02-.03-.69,0-1.35.01-1.98.03-.63.02-1.19.03-1.69.03-.06,0-.09-.06-.09-.17s.03-.17.09-.17c.6,0,1.04-.05,1.33-.14.29-.1.49-.29.59-.58.11-.29.16-.71.16-1.27v-13.36c0-.56-.05-.98-.14-1.26-.1-.28-.29-.47-.58-.58-.29-.11-.73-.16-1.33-.16-.04,0-.06-.06-.06-.17s.02-.17.06-.17c.5,0,1.06.01,1.67.04.62.03,1.27.04,1.96.04.64,0,1.33-.03,2.09-.09.76-.06,1.48-.09,2.15-.09ZM226.57,460.09c0-1.13-.12-2-.35-2.6-.23-.6-.55-1-.95-1.23-.4-.22-.87-.33-1.38-.33-.77,0-1.32.14-1.64.43-.33.29-.49.77-.49,1.44v6.12c.27.04.56.07.87.09.31.02.58.03.81.03,1.13,0,1.94-.31,2.42-.94.48-.62.72-1.63.72-3.02ZM230.55,473.45c-.29,0-.75-.36-1.4-1.08s-1.42-1.76-2.32-3.13c-.9-1.37-1.92-3-3.06-4.91l2.65-.81c1.54,2.33,2.85,4.19,3.94,5.6,1.09,1.4,2.05,2.42,2.9,3.04.85.63,1.65.94,2.42.94.04,0,.06.06.06.17s-.02.17-.06.17h-5.14Z" fill="#243b2f"/>
      <path d="M250.97,471c0,.58.06,1.01.19,1.31.12.3.39.51.79.62.4.12,1,.17,1.79.17.06,0,.09.06.09.17s-.03.17-.09.17c-.62,0-1.28,0-2.01-.03-.72-.02-1.51-.03-2.35-.03-.69,0-1.35.01-1.98.03-.63.02-1.19.03-1.69.03-.06,0-.09-.06-.09-.17s.03-.17.09-.17c.6,0,1.04-.05,1.33-.14.29-.1.48-.29.58-.58.1-.29.14-.71.14-1.27v-13.36c0-.56-.05-.98-.14-1.26-.1-.28-.29-.47-.58-.58-.29-.11-.73-.16-1.33-.16-.06,0-.09-.06-.09-.17s.03-.17.09-.17c.5,0,1.06.01,1.67.04.62.03,1.27.04,1.96.04.46,0,1.07-.03,1.82-.09.75-.06,1.45-.09,2.11-.09,1.21,0,2.28.16,3.22.48.93.32,1.68.82,2.24,1.52.56.69.86,1.61.89,2.74.04.98-.12,1.84-.48,2.57-.36.73-.85,1.34-1.47,1.82-.63.48-1.32.84-2.08,1.08-.76.24-1.51.36-2.26.36-.19,0-.41,0-.65-.03-.24-.02-.48-.06-.71-.12-.06-.02-.08-.09-.06-.22.02-.12.07-.18.14-.16.15.04.33.07.52.09.19.02.35.03.46.03.56,0,1.07-.17,1.53-.52.46-.35.84-.88,1.13-1.59.29-.71.43-1.6.43-2.65s-.14-1.88-.43-2.58c-.29-.7-.71-1.24-1.27-1.62-.56-.37-1.25-.56-2.08-.56-.35,0-.62.05-.82.14-.2.1-.35.28-.43.55-.09.27-.13.65-.13,1.15v13.19Z" fill="#243b2f"/>
      <path d="M281.01,473.1c.1,0,.14.06.14.17s-.05.17-.14.17c-.58,0-1.18-.02-1.8-.06-.63-.04-1.23-.06-1.8-.06-.65,0-1.22.02-1.7.06-.48.04-1.02.06-1.62.06-.08,0-.12-.06-.12-.17s.04-.17.12-.17c.79,0,1.25-.16,1.37-.48.12-.32-.05-.95-.53-1.89l-5.86-11.57,1.41-2.48-5.74,12.67c-.52,1.15-.53,2.07-.03,2.74.5.67,1.29,1.01,2.37,1.01.1,0,.14.06.14.17s-.05.17-.14.17c-.58,0-1.11-.02-1.59-.06-.48-.04-1.09-.06-1.82-.06s-1.35.02-1.8.06c-.45.04-1.01.06-1.66.06-.08,0-.12-.06-.12-.17s.04-.17.12-.17c.52,0,.97-.11,1.34-.33.37-.22.75-.62,1.13-1.21.37-.59.8-1.42,1.28-2.5l6.26-13.76c.02-.06.11-.09.26-.1.15,0,.24.02.26.1l7.21,14.2c.46.9.86,1.62,1.2,2.15.34.53.65.9.95,1.13.3.22.6.33.91.33ZM265.26,466.84l.43-.81h8.31l.2.81h-8.94Z" fill="#243b2f"/>
      <path d="M288.25,465.54l-4.39-6.81c-.77-1.19-1.38-1.99-1.83-2.38-.45-.39-.83-.59-1.14-.59-.06,0-.09-.06-.09-.17s.03-.17.09-.17c.29,0,.59.01.89.04s.61.04.89.04c.54,0,1.12,0,1.73-.01.62,0,1.2-.02,1.75-.04.55-.02,1-.03,1.34-.03.04,0,.06.06.06.17s-.02.17-.06.17c-.56,0-.89.19-1,.58-.11.39.01.84.36,1.36l4.15,6.55-2.77,1.3ZM288.08,464.5l3.2-.26v6.87c0,.56.05.98.14,1.27.1.29.29.48.58.58.29.1.73.14,1.33.14.06,0,.09.06.09.17s-.03.17-.09.17c-.5,0-1.05,0-1.66-.03-.61-.02-1.27-.03-2.01-.03-.69,0-1.36.01-1.99.03-.63.02-1.2.03-1.7.03-.04,0-.06-.06-.06-.17s.02-.17.06-.17c.6,0,1.04-.05,1.34-.14.3-.1.5-.29.61-.58.11-.29.16-.71.16-1.27v-6.61ZM289.92,465.43l3.55-6.03c.63-1.08.88-1.95.74-2.63-.14-.67-.67-1.01-1.57-1.01-.06,0-.09-.06-.09-.17s.03-.17.09-.17c.62,0,1.19.01,1.73.04.54.03,1.26.04,2.16.04.48,0,.87-.01,1.17-.04.3-.03.66-.04,1.08-.04.04,0,.06.06.06.17s-.02.17-.06.17c-.39,0-.85.17-1.38.51-.54.34-1.08.79-1.62,1.37-.54.58-1.04,1.25-1.5,2.02l-3.75,6.26-.61-.49Z" fill="#243b2f"/>
      <path d="M304.93,458.33c0,.73.19,1.37.56,1.92.38.55.87,1.04,1.47,1.49.61.44,1.25.89,1.92,1.33.73.46,1.43.95,2.09,1.46s1.21,1.1,1.64,1.76c.43.66.65,1.46.65,2.38,0,1.02-.27,1.91-.82,2.68-.55.77-1.29,1.37-2.22,1.8-.93.43-2,.65-3.19.65-.58,0-1.18-.06-1.8-.17-.63-.12-1.19-.26-1.7-.43-.51-.17-.88-.36-1.11-.55-.08-.06-.14-.12-.2-.19-.06-.07-.09-.19-.09-.36l-.09-4.59c-.02-.1.02-.15.13-.16.11,0,.17.02.19.1.29.6.61,1.23.95,1.89.35.66.74,1.27,1.17,1.83.43.56.92,1.01,1.46,1.37.54.36,1.15.53,1.85.53.44,0,.87-.08,1.27-.23.4-.15.74-.43,1-.84.26-.4.39-.96.39-1.67,0-.9-.2-1.68-.61-2.32-.4-.64-.92-1.21-1.56-1.7-.63-.49-1.3-.96-1.99-1.4-.67-.44-1.32-.9-1.93-1.37-.62-.47-1.12-1.01-1.5-1.62-.39-.61-.58-1.33-.58-2.18,0-1.08.3-1.96.91-2.64.61-.68,1.38-1.19,2.31-1.52.93-.33,1.88-.49,2.84-.49.69,0,1.38.06,2.08.19.69.13,1.24.27,1.64.45.19.08.31.16.36.26.05.1.07.2.07.32v4.24c0,.06-.04.1-.13.13-.09.03-.15.01-.19-.04-.12-.23-.28-.61-.49-1.14-.21-.53-.49-1.08-.84-1.66-.35-.58-.79-1.07-1.33-1.49-.54-.41-1.19-.62-1.96-.62-.48,0-.92.1-1.31.29-.39.19-.71.48-.95.85-.24.37-.36.86-.36,1.46Z" fill="#243b2f"/>
      <path d="M336.75,473.1c.1,0,.14.06.14.17s-.05.17-.14.17c-.58,0-1.18-.02-1.8-.06-.63-.04-1.23-.06-1.8-.06-.65,0-1.22.02-1.7.06-.48.04-1.02.06-1.62.06-.08,0-.12-.06-.12-.17s.04-.17.12-.17c.79,0,1.25-.16,1.37-.48.12-.32-.05-.95-.53-1.89l-5.86-11.57,1.41-2.48-5.74,12.67c-.52,1.15-.53,2.07-.03,2.74.5.67,1.29,1.01,2.37,1.01.1,0,.14.06.14.17s-.05.17-.14.17c-.58,0-1.11-.02-1.59-.06-.48-.04-1.09-.06-1.82-.06s-1.35.02-1.8.06c-.45.04-1.01.06-1.66.06-.08,0-.12-.06-.12-.17s.04-.17.12-.17c.52,0,.97-.11,1.34-.33.37-.22.75-.62,1.13-1.21.37-.59.8-1.42,1.28-2.5l6.26-13.76c.02-.06.11-.09.26-.1.15,0,.24.02.26.1l7.21,14.2c.46.9.86,1.62,1.2,2.15.34.53.65.9.95,1.13.3.22.6.33.91.33ZM321,466.84l.43-.81h8.31l.2.81h-8.94Z" fill="#243b2f"/>
      <path d="M349.82,473.79c-1.69,0-3.2-.24-4.53-.72-1.33-.48-2.45-1.14-3.38-1.99-.92-.85-1.63-1.83-2.11-2.94-.48-1.12-.72-2.31-.72-3.58,0-1.4.28-2.68.84-3.84.56-1.15,1.35-2.15,2.37-2.99,1.02-.84,2.21-1.49,3.58-1.95,1.37-.46,2.86-.69,4.47-.69.9,0,1.82.07,2.74.2.92.13,1.67.33,2.25.58.21.08.33.14.36.19.03.05.05.21.07.48l.37,4.01c0,.06-.05.1-.14.12-.1.02-.16,0-.2-.09-.14-.37-.37-.82-.71-1.37-.34-.55-.77-1.09-1.31-1.62-.54-.53-1.18-.98-1.93-1.34-.75-.37-1.62-.55-2.6-.55-1.23,0-2.35.33-3.36,1-1.01.66-1.81,1.61-2.41,2.84-.6,1.23-.89,2.7-.89,4.41,0,1.38.2,2.64.59,3.78.39,1.14.95,2.12,1.67,2.96.72.84,1.56,1.48,2.52,1.93.96.45,2.02.68,3.17.68.73,0,1.32-.09,1.76-.26.44-.17.76-.51.97-1.01.2-.5.3-1.24.3-2.22,0-.92-.05-1.6-.16-2.03-.11-.43-.36-.72-.76-.85-.4-.13-1.06-.2-1.96-.2-.12,0-.17-.08-.17-.23s.05-.23.14-.23c1.35.08,2.56.12,3.64.13,1.08.01,2.21-.01,3.4-.07.08,0,.12.07.13.2,0,.13-.03.2-.13.2-.33-.02-.57.04-.72.19s-.25.46-.29.94c-.04.48-.06,1.23-.06,2.25,0,.63.02,1.11.06,1.41.04.31.07.53.1.68.03.14.04.29.04.45,0,.12-.02.19-.06.23-.04.04-.13.08-.26.12-1.06.23-2.17.42-3.33.58-1.16.15-2.28.23-3.36.23Z" fill="#243b2f"/>
      <path d="M366.61,471.11c0,.56.05.98.14,1.27.1.29.29.48.58.58.29.1.73.14,1.33.14.06,0,.09.06.09.17s-.03.17-.09.17c-.5,0-1.06,0-1.67-.03-.62-.02-1.29-.03-2.02-.03-.69,0-1.36.01-1.99.03-.63.02-1.2.03-1.7.03-.04,0-.06-.06-.06-.17s.02-.17.06-.17c.6,0,1.04-.05,1.34-.14.3-.1.5-.29.61-.58.11-.29.16-.71.16-1.27v-13.36c0-.56-.05-.98-.16-1.26-.11-.28-.31-.47-.61-.58-.3-.11-.75-.16-1.34-.16-.04,0-.06-.06-.06-.17s.02-.17.06-.17c.5,0,1.07.01,1.7.04s1.3.04,1.99.04c.73,0,1.41-.01,2.03-.04.62-.03,1.18-.04,1.66-.04.06,0,.09.06.09.17s-.03.17-.09.17c-.58,0-1.01.06-1.31.17-.3.12-.5.32-.59.61-.1.29-.14.71-.14,1.27v13.3Z" fill="#243b2f"/>
      <path d="M376.25,458.33c0,.73.19,1.37.56,1.92.38.55.87,1.04,1.47,1.49.61.44,1.25.89,1.92,1.33.73.46,1.43.95,2.09,1.46s1.21,1.1,1.64,1.76.65,1.46.65,2.38c0,1.02-.27,1.91-.82,2.68-.55.77-1.29,1.37-2.22,1.8-.93.43-2,.65-3.19.65-.58,0-1.18-.06-1.8-.17-.63-.12-1.19-.26-1.7-.43-.51-.17-.88-.36-1.11-.55-.08-.06-.14-.12-.2-.19-.06-.07-.09-.19-.09-.36l-.09-4.59c-.02-.1.02-.15.13-.16.11,0,.17.02.19.1.29.6.61,1.23.95,1.89.35.66.74,1.27,1.17,1.83.43.56.92,1.01,1.46,1.37.54.36,1.15.53,1.85.53.44,0,.87-.08,1.27-.23.4-.15.74-.43,1-.84.26-.4.39-.96.39-1.67,0-.9-.2-1.68-.61-2.32-.4-.64-.92-1.21-1.56-1.7s-1.3-.96-1.99-1.4c-.67-.44-1.32-.9-1.93-1.37-.62-.47-1.12-1.01-1.5-1.62-.39-.61-.58-1.33-.58-2.18,0-1.08.3-1.96.91-2.64.61-.68,1.38-1.19,2.31-1.52.93-.33,1.88-.49,2.84-.49.69,0,1.38.06,2.08.19.69.13,1.24.27,1.64.45.19.08.31.16.36.26.05.1.07.2.07.32v4.24c0,.06-.04.1-.13.13-.09.03-.15.01-.19-.04-.12-.23-.28-.61-.49-1.14-.21-.53-.49-1.08-.84-1.66-.35-.58-.79-1.07-1.33-1.49-.54-.41-1.19-.62-1.96-.62-.48,0-.92.1-1.31.29-.39.19-.71.48-.95.85-.24.37-.36.86-.36,1.46Z" fill="#243b2f"/>
      <path d="M393.79,456.08c-1.17,0-2.17.39-2.99,1.17-.82.78-1.47,1.88-1.95,3.3-.02.06-.08.08-.17.07-.1,0-.14-.04-.14-.1.04-.27.08-.65.12-1.14.04-.49.08-1.02.13-1.6.05-.58.09-1.13.12-1.67.03-.54.04-.98.04-1.33,0-.1.05-.14.16-.14s.16.05.16.14c0,.19.1.33.3.42s.43.14.69.17.48.04.65.04c1.65.06,3.59.09,5.8.09,1.35,0,2.42-.01,3.23-.04.81-.03,1.59-.04,2.34-.04.69,0,1.22-.04,1.57-.13.36-.09.58-.28.68-.59.02-.08.08-.12.19-.12s.16.04.16.12c-.04.31-.07.74-.1,1.28-.03.55-.06,1.13-.09,1.73s-.05,1.16-.07,1.67c-.02.51-.03.89-.03,1.14,0,.06-.05.09-.14.09s-.15-.03-.17-.09c-.29-1.52-.83-2.64-1.63-3.36-.8-.72-1.76-1.08-2.9-1.08-.39,0-.68.05-.88.16-.2.11-.34.28-.4.53-.07.25-.1.6-.1,1.04v13.3c0,.56.06.98.17,1.27.12.29.34.48.68.58.34.1.85.14,1.54.14.06,0,.09.06.09.17s-.03.17-.09.17c-.54,0-1.14,0-1.82-.03-.67-.02-1.41-.03-2.22-.03s-1.49.01-2.16.03c-.67.02-1.29.03-1.85.03-.06,0-.09-.06-.09-.17s.03-.17.09-.17c.67,0,1.18-.05,1.53-.14.35-.1.58-.29.71-.58.12-.29.19-.71.19-1.27v-13.36c0-.42-.03-.75-.1-1-.07-.24-.2-.41-.39-.52-.19-.11-.47-.16-.84-.16Z" fill="#243b2f"/>
      <path d="M421.17,473.45h-12.75c-.06,0-.09-.06-.09-.17s.03-.17.09-.17c.6,0,1.04-.05,1.33-.14.29-.1.48-.29.58-.58.1-.29.14-.71.14-1.27v-13.36c0-.56-.05-.98-.14-1.26-.1-.28-.29-.47-.58-.58-.29-.11-.73-.16-1.33-.16-.06,0-.09-.06-.09-.17s.03-.17.09-.17h12.23c.19,0,.29.09.29.26l.06,3.84s-.05.07-.14.09c-.1.02-.16,0-.2-.06-.31-1.13-.83-1.97-1.56-2.5-.73-.53-1.69-.79-2.89-.79h-.87c-.39,0-.7.05-.95.16-.25.11-.43.27-.55.5-.12.23-.17.52-.17.87v13.21c0,.37.05.67.14.92.1.25.24.43.43.55.19.12.44.17.75.17h.95c1.5,0,2.7-.31,3.61-.92s1.57-1.57,1.99-2.86c.02-.06.08-.07.19-.04.11.03.16.06.16.1-.08.56-.14,1.22-.2,1.98-.06.76-.09,1.47-.09,2.12,0,.29-.14.43-.43.43ZM419.56,467.01c0-.79-.3-1.41-.89-1.86-.6-.45-1.47-.68-2.63-.68h-3.9v-.81h3.92c1.13,0,2-.2,2.58-.59.59-.39.88-.93.88-1.6,0-.06.05-.09.16-.09s.16.03.16.09c0,.63,0,1.13-.01,1.49,0,.36-.01.73-.01,1.11,0,.48.01.95.04,1.41s.04.97.04,1.53c0,.04-.06.06-.17.06s-.17-.02-.17-.06Z" fill="#243b2f"/>
    </g>
    <g>
      <path d="M246.11,439.92c-.59,3.89-11.66.23-18.02-2.81l-6.95,3.61c-.46.24-1.59.13-1.99-.12s.36-1.52.77-1.76l6.16-3.6c2.55-1.49-.85-13.83,6.59-17.74,2.06-1.08,3.31,2.44,3.4,4.5.89-1.21,1.65-3.13,2.02-4.88.96-4.51,4.29-8.22,9.25-8.12.82,1.62,1.34,4.06,1.86,6.32,3.45-4.85,8.6-9.2,9.58-7.15l1.18,2.47,10.68-2.04c.23,4.36-2.35,6.83-4.55,9.67l1.26,3.28c.34.9-1.19,2.99-2.02,3.49-3.09,1.86-6.36,2.06-10.12,2.57,2.25,1.26,5.83,2.31,4.93,5.1-1.1,3.42-6.2,4.81-9.5,4.05l-8.41-1.94c1.97,1.55,4.24,2.58,3.86,5.08ZM236.28,429.95c-2.07,2.34-5.12,2.94-7.17,5.34l12.71-6.31c2.8-1.39,6.56.92,9.43.88-1.9-1.09-4.07-1.62-6.85-2.41l14.74-9.35-6.93,3.34-.56-2.27c-.46,1.36-1.48,3.38-2.74,4.08l-9.81,5.44.41-2.38-3.21,3.64Z" fill="#243b2f"/>
      <path d="M479.84,428.28h-191.81c-.76-.01-1.56,0-1.57-.32l-.04-1.32c-.01-.32.98-.48,1.61-.48l190.68-.03c.9,0,1.37.8,1.13,2.15Z"/>
      <path d="M203.67,428.26l-186.22.02-.02-2.14,186.8.04c.7.51.59,1.64-.56,2.08Z"/>
      <path d="M236.28,429.95l3.21-3.64-.41,2.38,9.81-5.44c1.26-.7,2.28-2.71,2.74-4.08l.56,2.27,6.93-3.34-14.74,9.35c2.78.79,4.95,1.33,6.85,2.41-2.87.04-6.63-2.27-9.43-.88l-12.71,6.31c2.05-2.4,5.1-3,7.17-5.34Z" fill="#6a7f50"/>
    </g>
  </g>
  <g>
    <path d="M178.47,105.29c.28.12.96,1.65,1.09,1.94s1.04.02.82,0l.57-3.32c.12-.69,2.5.09,2.86.69.47.81,1.3,2.47,2.06,2.51l2.96.15-2.53-2.51c-.55-.55,1.17-2.41,1.85-2.54l-1.44-2.36,4.96-1.36-1.57-1.41-.6-5.55c-1.69,3.28-4.7,5.5-6.27,4.98-.54-.18-1.18-1.78-.98-2.32.44-1.23,2.64-2.37,4.35-3.2l-3.32-1.58c-.99-1.17-.19-3.32,1.42-3.97,1.25-.5,2.77.74,4.06,2.19-.16-.93-.41-3.11.32-3.51.75-.42,3.01.79,2.97,1.61l-.15,3.27c1.82-.79,2.47-.97,4.69-.95.01-.35-1.05-1.82-2.02-2.78-1.42-1.4.18-4.24,1.99-4.24l2.35,2.54-.46-2.79c-.13-.77,2.86-1.52,3.12-.78l1.17,3.36.97-1.93c.29-.58,2.58-.54,2.68.1l.41,2.71,1.48,1.54c.87.9-3.81,1.78-3.5,2.29s1.14,1.8,1.05,1.66c.57-.88,1.69-2.58,2.11-2.14l1.92,2.01,1.54-2.3c.44-.65,2.18,1.06,2.81,2.21.04.25,1.95-1,2.38-1.42l-3.44-1.19-.5-4.33c-.07-.58,1.07-1.87,1.61-1.68l2.65.94-.77-2.91,5.55.87.49-2.06c.14-.6-3.82-.07-3.83-1.28,0-.68.47-2,.93-2.83l.43-1.49-2.08,1.26c-.34.21-1.22-.73-1.44-.91l-.6,2.99c-.62.71-1.64.99-2.61.66l-1.82-2.35c-.35.55-1.13,1.76-1.7,2.17-.66.49-2.52-.49-2.82-1.24-1.38-3.4,3.21-3.48,2.82-5.95l-1.59,1.04c-.26.17-1.16-.14-1.15-.46l.06-1.57-3.86,1.66c-.91.37-2.35-2.27-1.69-3.14.6-.8,2.34-1.22,3.73-1.33l-2.1-2.1c-.4-.4.42-1.92.98-1.89l2.78.12c.13-.97,1.58-2.69,2.63-2.48.9.18,1.63,1.66,2.49,3.41l.75-3.42c-.82-.11-1.81-.32-1.72-.77l.5-2.63c-.78.08-1.8.28-2.2-.25-.48-.63-.87-2.2-.47-2.75s1.92-.89,3.32-1.11l-1.28-2.41c-.34-.63,1.28-2.25,1.98-2.12,2.52.47,2.85,3.63,3.03,3.21-.03.08.67-.49.67-.5s-.07-.79-.04-.98l.25-2c.05-.43,1.32.5,1.81.95l2.45-1.67c1.04.43,2.19,2.52,1.83,3.93-.27,1.04-1.49,2.01-3.17,3.36,1.1-.06,3.61-.57,4.58-1.22.57-.38-.08-3.15.6-3.08l3.02.28,5-1.16-1.49-1.87c-.81-1.01-3.07,1.22-5.82-.48-.68-.42-.48-2.94.37-2.97l5.19-.16-3.68-1.82c-.84-.42.47-3.32,1.38-3.06.95.28,2.08.72,2.65,1.1.85.58-.52,6.72,1.47,5.58,1.25-.72,1.05-3.37.91-4.81-.08-.85,1.46-2.51,2.32-2.52s2.31.88,2.63,1.68c.48,1.22-.66,2.84-1.63,3.5l-1.94,1.32,3.66-.13c.76-.03,1.25,2.42.97,2.7l-2.99.5c-.75.13-1.13,1.77-1.19,2.67.74-.01,1.6-.16,1.77.22.22.47.31,1.74.25,2.3l-.21,1.91c-.09.83,4.34-.76,7.09,1.35.45.07,1.57-.15,1.83.17l1.22,1.54.73.93c.11.14.44.16.43-.03l-.06-1.25-.1-2.11c-.03-.55,1.52-.64,2.02-.58.26-1.07,1-2.62,1.87-2.77,4.25-.74,1.93,5.48,6.46,6.22.46-2.06-2.4-3.3-1.55-5.66.26-.72,1.96-1.52,2.71-1.36,1.11.25,4.17,4.06,3.42,2.28-1.12-2.69-2.74-3.22-2.26-3.63l1.72-1.45-1.67-1.34c-.33-.27.57-1.33.91-1.76.02-.07-.78-.69-.91-.49l-.94,1.41c-.2.31-.63,1.24-.99,1.24l-1.78-.02c-1,0-2.9-.77-2.98-1.71-.11-1.25.75-2.52,1.83-3.93l-3.29.56c-.55-.24-1.28-2.09-.9-2.77.44-.79,2.34-1.14,3.55-1.22-.64-.67-1.76-1.8-2.11-2.5s1.16-2.05,1.88-2.34c.83-.34,2.66.61,3.31,1.17.47-1.2,1.65-2.78,2.52-2.69,1.11.13,1.78,1.2,2.63,3.19.33-.6.94-2.27,1.39-3.77l2.41-1.11-4.54-1.21c-.75-.2-2.09-1.83-1.87-2.57.26-.87,2.05-1.41,3.55-1.74l-1.98-1.56c-.47-.59,1.2-3.04,2.26-2.97,1,.07,2.28,1.3,3.79,2.59l-.03-3.32c0-.75,2.1-1.29,2.81-1.06s1.55,1.72,1.54,2.47l-.03,1.81c-.04,2.31,1.51-2.92,3.54-3.16,1.54-.19,2.81,1.82,2.47,3.27l3.94-1.48.85-1.43c.62-1.04-3.77-.52-3.64-2.97.04-.7,1.57-1.46,2.26-1.52l1.93-.15-1.67-2.07c-.34-.42,1.41-1.17,1.87-1.55l2.27-1.85c.53-.43,1.67,1.3,2.09,2.43l1.98-1.67c.53-.45,1.88.79,1.99,1.48s-.98,1.86-1.74,2.37l.49.72.75,1.12c1.34-2.35,3.1-3.88,5.65-2.81.5.21,2.1.58,2.01,1.12l-.56,3.13c.31.19,2.6.85,3.47.62l3.35-.87c-.48-.93-1.05-2.07-.93-2.7.15-.74,2.13-.99,2.84-.94.54-.63,1.61-1.97,2.39-2.21.78-.24,1.98,1.43,2.36,2.42l1.6-1.23c.39-.3,1.53.23,1.77.66.3.54.06,2.14-.45,2.5l-2.1,1.48c-.49.34-.04,2.36.19,2.64.95-1.46,2.35-3.39,3.41-3.22.55.48,1.93,1.71,1.67,1.49-.15-1.81-.32-3.13.29-3.68.75-.68,2.48-.15,3.28.36.87-.22,2.29-.67,3.06-.56.88.13,1.04,2.65.66,3.42l2.6-.32c.59-.07,1.39,1.77,1.19,2.42-.55,1.74-3.09,2.75-5.15,1.96l-.07,1.9,3.46,1.34c.76-.16,1.68-.36,2.34-.35s1.38,1.97,1.27,2.66c-.42,2.64-2.46,5.25-5.14,5.91-.54-.29-1.52-1.19-1.89-.91-.44.33-1.99,1.5-1.67,1.26l3.58,2.38-2.55,3.3,3.17,1.72,2.31-2.3c.55-.55,2.08,1.2,2.6,2.27l2.92-1.63-2.98-.97c-.64-.21.41-1.94.56-2.63l.59-2.66c.16-.7,2.45.25,2.65.58l1.02-2.58c.25-.63,2.43-.81,2.69-.19l1.08,2.64,1.82-1.46c.5-.4,2.26.36,2.19.99s-.46,1.68-.9,2.81c-.59.83-.56,1.39.32.49l1.54-1.16c.37-.28,1.3.66,1.68,1.08.83.33,1.22.49.68.27l-.77-3.46c-.17-.79,1.98-1.95,2.72-1.63s1.42,1.26,2.46,2.5l1.38-2.19c.79-1.25,4.91,1.38,4.3,2.39l-1.28,2.14,3.54.46c.84.11.98,4.51.42,4.76l-3.15,1.4c-.95-.59.56.35.95.59.84.03,2.24.38,2.15.88l-.52,2.83s.87-1.13,1.26-1.63c.44-.58,2.64-1.49,2.99-.86s.32,1.47.38,2.71l2.55-1.99c.55-.43,2.35,1.07,2.38,1.78.03.82-.96,1.78-2.33,3.1l3.4,1c-.13.99-.42,3.26-.86,4.11-.92,1.78-3.98.82-5.32-1.11-.13,1.94.65,3.66,2.45,5.6-.47,1.16-2.12,2.58-4.05,3.06-.92.23-2.52-1.76-2.61-2.76l-2.02,2.21c-.52.56-2.55-.8-2.74-1.54s.33-1.6,1.18-3.12l-3.97.62.51,2.06c.26,1.07-3.89.76-4.82,4.14l4.27.24c.59.03,2.36.87,2.09,1.41l-1.41,2.81,3.46-2.11c.73.19,2.36,1.69,2.59,2.59.24.96-1.48,2.05-3.07,2.83l2.34.85c.64.23,1.01,2.38.36,2.57l-3.24.99,1.61,1.96,4.28-2.92,2.54,3.17,3.17-1.94-3.19-1.02c-.58-.19-.63-2-.1-2.31l2.08-1.25c-.58-1.01-1.12-2.36-.82-3.06.52-1.23,2.34-2.08,3.11-.37l1.76-2.35,4.02,3.15c.17.13.45,1.22.64,1.12.21-.11.76-.32.74-.41l-.18-1.13-.35-2.35c-.08-.52,1.23-1.51,1.68-1.25l2.05,1.18c.57-.76,1.74-2,2.54-2.14,1.03-.18,2.22,1.8,2.19,3.11l1.52.44c.49.14,1.32,1.49.89,1.72l-2.42,1.35,2.4-.17c.56-.04,1.46,1.09,1.55,1.64.1.67-1.02,1.78-1.84,2.32l1.18,1.49c1.08,1.37-2.73,2.74-2.55,2.94l1.23,1.43c.25.29.8-.56,1.23-1.13l2.28-1.5c.53-.35,1.92,1.1,2.22,1.36l2.78-1.05c.67-.25,2.04,1.76,1.8,2.1l-1.65,2.3,2.55-.39c.49-.08,1.32.9,1.14,1.36l-.87,2.2,2.61,1.7c.65.42-.26,2.85-1.03,2.92s-1.81-.49-3.25-1.22l.84,1.8c.22.47-.64,1.68-1.15,1.72s-1.72-.42-2.08-.8l-2.2-2.3.29,3.73c.64.31,2.39,1.16,2.62,1.94s-1.22,1.85-2.38,2.61l3.48,1.01v-.25c.16-.8.63-2.39,1.21-2.7.7-.37,2.1.85,2.89.91l2.56.18c.6.04,1.57,1.39,1.34,1.94-.28.66-1.49,1.36-2.32,1.84l-1.45.84c-.4.23.91,1.08,1.37,1.11,1.08.07,1.83.1,2.43.29s1.06,1.95.86,2.54c-.48,1.43-3.42,2.59-4.95,1.2l-2.24-2.03c-.49-.44-2.43.39-2.42.84l1.78,1.63c.36.33.36,1.42.5,1.99.58.86,1.31,2.21.94,2.84-1.05,1.78-5.68,1.02-5.71.71l-.27-3-2.2,3.1c-.96-.11-3.04-1.33-3.2-2.31-.2-1.26.98-2.88,2.05-3.97l-1.64.22c-1.38.19-.99-1.47-3.37-1.33-.54.03-.2,1.56.18,2.39.27.57-1.12,2.16-1.7,1.87l-2.48-1.24-1.28-.64c-.28-.14-1.23.47-1.07.74,1.19,2.04,4.54,1.77,6.19,4.98.42.82-.48,3.06-1.25,3.44-.86.42-2.14.12-3.62-.73l-1.11,4.43c-.07.29-.96.99-1.19,1.18s.03,1.11.32,1.03c2.12-.6,2.35-1.83,4.12-2.03.66-.07,1.85.83,2.55,1.37.26-.69.82-2.01,1.49-2.43.67-.42,2.51.28,2.99.91.56.73.5,2.84-.04,3.59l-.85,1.16c-.22.31.27,1.38.42,1.34,1.04-.65,2.34-1.38,3.14-1.44s1.64,1.54,1.99,2.67c.26-.04.95-1.03.79-1.44l-1.04-2.59,2.94.69-1.48-2.72c-.29-.54,3.18-3.53,5.05-3.61.77-.03,1.49,1.96,1.99,2.54l2.63,2.98c.23.26,1.18,1.2,1.22.87l.29-2.27.18-1.4c.05-.37,1.13-.73,1.26-.38l.65,1.84c-.97,1.09-.51,1.29.48.73.67-.87,1.95-2.32,2.6-1.92.72.44,1.97,1.63,2.4,2.29s-1.2,2.07-1.7,2.29l2.54,1.21c.56.27-.21,2.45-.84,2.47l-2.85.08s.5,1.39.07,1.49l-2.23.51,1.89,1.05c.5.28-.47,1.51-1.23,2.22l1.57.75c.42.2,1.39-2.52,3.89-2.43.64.02,1.03,1.87,1.11,2.5l2.11-1.06c.55-.28,2.38.4,2.22,1l-.71,2.57,2.88.86c.7.21,1.09,2.04.73,2.67-.27.48-.98,1.21-1.32,1.09l-2.22-.74.83,2.92c.17.6-1.65,1.5-2.18,1.19l-2.36-1.38c.76,2.28.71,3.84-.61,5.59l5.09-.22,1.33,2.17c.33.55-1.29,1.54-2.27,1.77-1.53-.06-1.43.72-.08.96,1.21.48,2.49,1.65,2.58,2.53.13,1.27-1.13,2.91-2.14,2.97-3.38.2-2.05-4.16-6.61-4.42l.81,3.98c.12.59-1.22,2.42-1.73,2.09l-2.45-1.59-2.44.08c-.58.02-1.56-1.55-1.21-2l1.96-2.49c-.06-.87-.54-1.69-.72-.12-.82.5-1.58.89-2.06.84-.6-.05-2.06-1.07-1.84-1.64s.8-1.44,1.26-2.11l-2.97-1.61c-.03,1.04.09,2.67-.43,2.82l-2.74.8,1.64,2.21c.47.64-.56,2.71-1.31,2.97s-2.1-.38-3.04-.59l-2.39,1.24c-.54.28-1.12-1.68-1.39-2.22l-.81-1.56c-.22-.43-1.91-.13-1.68.07l2.07,3.28c.49.77-1.1,2.57-2.23,3.08l2.85,2.01c.64-.91,2.31-2.15,3.08-1.78l3.12,1.49,2.99,1.08c.74.27-.27,2.1-1.2,2.8l2.78.28c.68.07.41,2.34.35,3.01l-.23,2.63c-.06.74-2.45.33-3.24-.1-.32.28-.96,1.57-1.51,1.52l-2.91-.25,2.2,2.26-.58,1.73c-.45,1.35,2.93-2.56,5.07-1.5.88.44,2.04,2.47,1.86,3.1l-3.68,1.63,3.21.32c.6.06,1.33,1.3.98,1.8l-1.54,2.18-2.21,2.98-5.89-3.56,1.76,3.71c.15.58-.77,2.79-1.48,2.78s-1.58-.32-2.59-.62l-2.27.92c-.54.22-1.15-1.68-1.46-2.15l-1.44-.84c-.4-.24-.73-1.42-.4-1.77l1.44-1.51c.4-.42-.55-2.02-.73-1.98-.58,1.5-1.4,2.43-2.64,2.16-.81-.18-1.52-1.56-1.97-3.24l-1.28,3.63c-.35.98-2.79.06-3.75-1.31-1.14.99-2.25,2.87-2.54,4.43,1.91-1.3,4.4-1.54,6.04-1.04.68.21,1.1,1.88,1.11,2.72l-3.94.62c-.38.06-.94,1.46-.69,1.4l1.32-.28c.76-.16,2.49.7,2.71,1.44s-.76,2.39-1.57,2.67c-.74.25-1.76-.75-2.63-1.54l-.4,2.45c-.11.67-2.22,1.26-2.54.66l-1.39-2.55-2.11,2.06c-.59.58-2.66-1.01-2.55-1.86s1.05-1.93,1.8-2.64l-1.12-1.32c-.29-.34.55-1.25.94-1.72l-4.03-1.24.07,2.82c.02.68-1.57,1.06-2.17,1.38l-2.2,1.17c-.5.27-1.88-1.16-1.62-1.66l1.01-2.03-2.35-.49c-.55-.11-.52-2.31.03-2.41l2.1-.37c.19-.03,1.14.36,1.32.45s.16-.63,0-.75l-.77-.58c-.37-.28-1.81-1.22-1.46-1.52l1.79-1.52c1.19-1.01,2.79,3.06,3.65,2.75.62-.22,2.25-.79,2.15-.76-3.1-1.22-3.6-4.46-6.63-4.76-1.43-.14-3.01.83-4.03,1.95l-6.48-1.13c-8.96-1.57-7.24,4.57-15.19,8.54-6.7,3.35-8.95,10.2-8.16,17.16l1.24,10.95c1.6,7.51,5.96,13.06,13.68,15.52,2.64.25,5.35,1.24,7.42,3.15l11.46,2.08,18.37,4.66c-14.29,26.34-35.49,47.06-61.85,60.56-13.43-1.19-38.74-7.81-47.17-16.25-1.01-1.01-2.25-3.95-3.07-5.36-.46-.8-.03-2.99.56-3.68.68-.8,2.56-1.37,4.09-1.75-1.08-1.07-2.62-4.08-2.46-5.57.09-.85,1.92-2.49,2.7-2.59.88-.11,1.97.27,3.52.81l-.34-3.81c-.08-.84,1.88-1.64,2.56-2.17l2.32-1.84c.55-.43,2.19.97,2.61,1.48l1.24-3.28,4.93-.9-.31,2.81c-.08.03-.18.18-.02.16.19-.02.76-.23.84-.41l.51-1.24c.23-.57,3.03,1.57,3.56,1.11l2.29-2.02,4.25-3.92c5.74-3.28,12.03-4.94,18.52-6.61,16.74-4.31,33.65-4.57,51.17-4.18l-6.02-1.09c-35.55-4.47-71.34-3.15-106.24,5.14-17.33,4.12-33.28,10.09-49.34,17.4l-6.06,2.76,3.46,2.18c-1.99-.1-4.78-.83-6.08-.14l-8.34,4.47c.85-4.75,5.03-6.25,8.48-7.47,5.66-4.54,11.72-7.49,18.46-11.15-7.97,1.63-20.67,1.43-20.93-2.11l-.21-2.77c-9.3,7.94-17.35,15.8-25.08,25.06,6.33-3.61,12.15-6.64,18.71-9.16l8.88-3.41-28.97,21.93,9.13-3.19c6.83-2.38,14.09-2.34,20.73-.09-3.97.26-7.8.26-11.25,1.97l-15.65,7.77c6.86-.79,12.72-1.2,18.7.59-8.9,1.01-16.54,3.37-24.33,6.89l-9.42,4.26c53.65,32.42,120.24,33.12,173.32-.77,35.73-22.82,60.23-59.3,68.54-100.75.25-1.23,2.15-2.3,3.07-2.15,1.27.21,2.59,1.77,2.24,3.51-8.17,40.91-31.7,77.52-66.22,101.27-53.02,36.47-120.68,38.6-177.09,8.07-51.35-27.79-84.21-81.71-85.64-140.23-.9-37.1,10.3-73.76,31.5-104.17C141.66,21.79,200.18-4.74,260.09.7c1.8.16,3.12,1.44,3.16,2.77.08,2.17-1.4,3.34-3.75,3.14-32.72-2.74-65.61,4.08-94.31,20.12-78.97,44.13-108.17,149.56-60.43,226.72.68,1.1,1.42,1.43,2.74,1.23,3.04,2.93,5.54,6.28,8.2,10.18-2.83-13.34-7.77-26.07-15.37-37.82,10.72,8.57,16.49,20.35,21.01,33.5-2.59-19.03-8.75-36.2-18.39-53.57,12.14,11.82,18.61,27.37,22.39,43.76l-.06-20.37c-9.22-5.65-9.92-18.58-10.57-29.54l.8-2.46c-.62-5.78-.39-11.43.67-17.42l2.03,3.68c-1.68-8.17-1.46-16.51.37-24.71l1.74,3.73c-.32-4.3-1.2-8.35-.75-12.31l1.44-12.47c.07-1.05.38-1.2,1.13.18-.03-4.17.13-8.49.98-12.95l1.14-6.03c.78-4.09.65-7.94,2.86-12.18l3.61,19.76c.87,4.79,1.02,9.37.65,14.09l1.21-2.56,1.17,10.05,1.21,10.33,1.21,10.34,1.34,17.95.81,9.62c.82,9.74-1.32,27.33-9.65,32.92l.19,29.38c.93-1.8.89-3.33,1.15-5.21,1.94-13.98,6.06-27.42,12.65-40-2.73,14.97-5.19,28.93-6.04,44.14,3.04-8.87,6.27-17.11,11.77-24.76l.05-12.84-2.6-1.43c-.56-.31-.81-2.38-.27-2.74.34-.22,1.22-.08,2.22.09,1.03-1.89-1.24-1.53-2.83-4.46-.32-.59.78-2.42,1.34-2.06l1.14.73c.17.11.36.12.32-.07-.07-.32-.45-1.13-.69-1.33l-2.28-1.85c-.62-.5,1.21-2.37,1.67-2.48l-1.66-2.02c-.4-.48.78-1.76.88-2.25l-1.45-1.77c-.33-.4.77-1.23,1.42-1.64-.96-1.01-1.32-3.27.63-4.38.83.59,1.49,2.51,1.61,3.82.23.5,1.17,1.83.92,2.32l-1.19,2.28c.56-.02,2.49.07,2.31.41l-1.2,2.16,1.58,1.94c.48.58-.79,2.32-1.4,2.95l.35.78c.75.26,2.17,1.3,2,1.91-.2.73-.83,1.91-1.34,2.74l-.62,1.03c-.11.18.01.83.19.72l1.48-.94c.46-.15,1.48,2.09.98,2.67l-2.2,2.53-.14,11.45,6.12-6.07,1.42-13.82.04-7.06-2.83-1.98c-.84-.59-.45-3.33.58-4.22l2.43,1.43-.03-2.43c-1.23-.46-2.58-1.06-2.9-1.78-.38-.85.25-2.9.76-3.56l2.22,1.38c.05-.95.16-2.21-.16-2.16l-1.61.29-1.35-.91c-.35-.23.06-1.89.47-1.81.55.11,1.08.35,2.51,1.01-.23.94.02-.07.18-.76v-1.49c-1.04-.11-2.08-.34-2.64-.89-.84-.83.26-3.43.95-2.87l1.31,1.08c.17.14.44.2.45-.02.02-.25-.14-1.34-.33-1.5l-2.25-1.84c-.58-.47.5-2.84.9-2.79l1.21,1.01c.16.13.42.12.4-.09-.26-2.26-1.49-1.69-2.17-3.79-.24-.75.5-3.1.78-3,1.55.4,1.56.4,1.08.27-.95-2.58-1.06-4.7,1.32-5.53.97,1.3.96,4.19.59,5.78.46-.19,1.41-.65,1.5-.38l.68,2.13-2.88,4.71,2.22-1.05c.53-.25,1.05,2.09.64,2.53l-2.96,3.18,2.39-1.07c.58-.26,1.51,2.03,1.08,2.49l-2.87,3.04c.12.62.38,1.99.13.66l2.48-.46c.47-.09.31,1.72-.25,1.79-1.04.14-3.08,1.45-2.65,3.08l2.21-2.36c1.71,1.44,1.65,3.9-.33,4.92-1.15.59-1.81,1.55-2.1,3.26l2.91-1.85c.4,1.23.75,2.75.66,3.87-.07.9-1.66,2.02-2.95,2.56l-.82,8.99-.25,9.67,4.08-2.75c-.36,2.84-4.02,3.37-4.43,7.81l-1.78,18.92,5.42-4.67,4.67-24.34c-1.29-1.21-2.42-3.2-2.25-4.39.04-.3,1.19-1.66,1.38-1.44l1.39,1.59c.03.11.81-1.02.51-1.29l-1.56-1.38c-.51-.45-.72-1.88-.28-2.68.39-.7,1.27-.71,2.69.21l.52-.57-2.89-3.39c-.15-.18,1.21-1.15,1.4-1l1.52,1.22-2.29-3.92,2.8.58-1.89-2.25c-.37-.44.37-2.03.7-2.21,1.47,1.1,1.28.57.76-.26l-.45-2.69c-.08-.5,1.4-.35,1.6-.32-.58-1.97-.35-3.7,2.16-5.01l.67,5.12c.17,1.31-.22,2.54-1.06,3.77-.88.67-1.18.9.16-.12.47.29,1.31,1.51.99,1.87l-1.76,1.93c-.14-.15.03.03.33.35.22.03,1.43.27,1.28.44l-1,1.19-1.77,2.09,1.08-.55c.24-.12.91-.93.97-.68l.51,2.24-3.61,2.47,1.78.24c.43.06,1.34,1.36,1.05,1.64l-2.59,2.15c-.11.14-.21,1.01-.02.95l1.75-.54-.19,2.7c-.06.8-1.64,1.36-2.86,1.65l-4.51,23.19,3.07-1.85c.51-.31,1.97-.59,2.17-.05s-.28,1.75-.69,2.16l-5.42,5.41-2.9,14.25,4.98-4.28,6.35-18.74,5.51-16.2-2.06-2.83c-.47-.65.8-3.23,1.58-3.05.31.07,1.25.9,1.47,1.13s.77-.15.87-.45c.42-1.3-.81-.93-2.12-3.95-.28-.65.92-2.67,1.58-2.42l1.87.69c1.77.66-1.08-2.55-1.33-4.05-.12-.74,1.15-2.25,1.72-2.23,1.62,1.08,1.67.47,1.1-.37l-1.02-2.02c-.27-.53,1.69-1.08,2.6-1.07l-1.56-2.6,2.19-.95c.29-.12-.33-1.11-.32-1.43l.06-2.03c.01-.46,1.36-.21,1.5-.2l1.99-4.07c2.16,1.43,1.2,3.49-.12,4.77.31.31,1.72,1.57,1.33,1.95l-2.46,2.45.93.21c.31.07,1.1,1.1.8,1.22l-1.55.66-1.11.48c-.21.09-.06.9.16.86l1.36-.23.26,1.94c.16,1.22-3.48,1.49-3.48,1.47.01-.06.03,1,.07,1.01.08.01.23-.03,1.7-.22.39-.09.99,2.14.64,2.89-.55,1.19-6.06,2.26-3.96,2.54l2.39.33c.4.15.12,2.38-.39,2.98-1.78,2.03-3.47.55-3.94,2.52-.05.21.06.71.26.64l2.4-.79c.21,1.19.13,2.03-.6,4.02l-3.36.78-2.22,5.44-3.1,10.59,5.15-4.54c-.63,3.87-4.34,5.84-6.31,9.07-2.15,3.52-2.93,7.61-4.39,11.85l5.73-2.2,10.83-21.58-1.03-3.04c-.28-.82,1.4-2.72,1.85-2.51l1.11,1.09c.14.13.83.33.76.15l-.53-1.31c-.25-.62-.67-2.63-.17-3.08.6-.54,1.58-.6,3.26-.89l-1.49-1.15c-.33-.26.02-2.12.42-1.99l2.32.72-.61-2.51c-.18-.73,1.32-1.8,2.33-2.21-.02-.2-.47-1.4-.11-1.58l1.81-.91.11-2.09c.03-.49,1.6-.52,1.89-.5.58-1.33,1.33-2.38,3.12-2.76l-.7,3.58-1.19,3.75c-.32,1.02-2.04,2.06-3.08,2.15l1.3.9c.29.2.32,1.27-.02,1.36l-1.7.45-1.34.35c-.21.05-.25.42-.06.51l1.58.68c.28.12.55,1.44.23,1.52l-2.08.5-1.13.27c-.2.05-.2.78,0,.85l1.39.49c.16.25-.11,1.85-.66,2.19-1.83,1.15-3.84.35-3.84,1,0,.27,0,1.02-.02,1.04-.02.02,1.24-.02,1.62-.03.82-.02.35,2.4-.25,3.01-.73.72-2.08.9-3.78.69l-6.77,13.45-2.74,6.32,9.05-6.12-4.09,4.59c-1.77,1.99-3.21,3.47-5.49,4.97s-3.02,5.25-4.18,7.75l-5.53,11.88c3.71-3.01,4.79-6.71,8.03-10.97l-1.63,5.33,9.48-6.72,13.52-8.9,5.85-3.92,1.06-.63c.24-.14-.76-.37-1.01-.23l-4.28,2.3c-1.44-1.24-2.09-3.17-1.45-4.62.46-1.05,2.12-1.19,4.32-1.16l-1.96-1.42-.11-3.86,7.23-1.13c-.84-.72-2.26-2.02-2.43-2.9-.42-2.19,2.68-6.73,3.03-6.74l3.96-.15.97-2.65c.3-.82,2.8.63,3.08,1.25-.05-.98.85-2.85,1.85-2.88,1.81-.07,2.99.67,3.87,2.31l3.24-1.88.14-3.26-2.03-1.13c-.67-.38-.45-2.85.29-3.09l3.08-.97c-1.01-.69-2.21-2.55-1.97-3.8.27-1.42,2.06-2.52,3.71-1.95l-.24-2.17c-.08-.71,2.2-1.08,2.94-.87l4.52,1.3c-.34.92-.1.28.31-.82.57-1-1.96-2.71-.88-3.74l2-1.9c.54-.51,1.67-2.29,2.33-2l2.66,1.15,1.33-1.49c.3-.34,1.54.03,1.84.07.83-.73,1.84-1.6,2.57-1.86.86-.31,2.68,1.06,3.22,1.79h1.8c.43,0,1.05,1.17,1.22,1.45.71-.42,2-1.09,2.76-1.17.89-.09,1.61,2.22,2.11,2.92l2.42,1.71c.55.39-.9,1.83-1.5,2.25l1.54,2.19,3.64-2.6c.78-.56,2.56.48,3.7,1.03l2.14,1.02c.54.26-.05,1.97-.05,2.35l2.12,1.57c.57.42-.44,2.24-.72,2.73.39.77,1.01,2.33.9,3.19-.11.97-1.6,1.67-3.08,1.4l.44,2.26-.44,1.11c-.47,1.2,1.92-.95,4.7-1.51l2.53-.51c.53-.11,1.12,1.4,1.28,1.82.88-.13,2.54.02,2.99.67s.07,2.41-.4,3.23c.76.24,2.08.73,2.41,1.44.48,1.03-.87,2.86-1.77,3.07l-1.37.32c-1.4.33,2.97.61,2.92.98l-.36,2.9,6.94-3.15c5.33-2.42,8.29-7.73,9.93-13.13,1.1-3.62,1.33-6.87,1.75-10.77.92-8.39-1.47-17.73-8.8-22.74-3.41-2.33-5.9-4.32-8.31-8.05-.92-1.42-4.35-2.93-6.01-3.03l-3.95,1.14c-.23.07-.91.85-.68.86l1.34.08c.61.03,2.08,1.64,1.59,1.97l-2.48,1.71-2.26,1.4c-.63.39-1.5-1.97-1.44-2.88-.06-.02-.87-.28-.62-.2-.74,1.38-1.29,2.34-2.12,3.17-.66.66-2.65-.63-3.01-1.66l2.15-2.93-3.78.79c-.22-1.07-.15-3.19.56-3.48s1.98-.44,2.87-.54c-.25-.43-.94-2.24-.46-2.29l2.14-.21c.23-.02,1.09.33,1.32.39.34.1.74-.75.75-1.03l-3.97-2.15c-1.8-.97-3-1.34-4.42-2.42l-1.56,1.37c-.47.41-1.61-1.07-1.9-1.71-4.07-.5,1.15,3,.62,4.2-.24.55-1.24,1.41-1.81,1.6s-1.7-.66-2.08-1.13l-.8-.98c-.13-.16-.78-.2-.68-.02l.66,1.21c.3.54.81,1.82.86,2.43s-1.12,1.52-1.72,1.62c-.72.12-1.84-1.04-2.1-1.6l.09-1.52c.02-.4-1.77-.5-1.21-.31l-.12,2.98c-.03.67-2.04,1.34-2.55.9-.51-.44-1.27-1.86-1.13-2.52.17-.79,1.52-1.37,2.92-2.15-2.32-.34-4.71,1.16-7.07,2.59l-3.4,1.95c1.19.96,2.16,1.73,2.58,2.34.5.74-.82,2.82-1.68,2.71l-3.67-.48,2.32,2.25c.56.55-.49,2.56-1.2,2.92-.75.38-2.53.78-2.73.17l-.96-2.92-1.52,3.9c-.27.69-2.99.61-3.23-.13s.07-1.99.59-3.58l-3.34.26,2.22-3.79-2.58,1.69c-.54.35-1.78-1.08-2.16-1.65l-2.6,2.41,2.47.77c.52.16.5,2.02-.02,2.17l-2.47.73,2.72,1.52c.65.36-.37,2.46-.96,2.91-.74.56-2.28.27-3.2-.44l-1.55,1.81c-.45.52-2.61-.17-2.73-.85s.11-1.63.57-3.36l-2.72-1.47c.18,1.55-.37,4.44-1.41,4.09-1.66-.55-2.74-.92-4.11-.79-.82.08-2.11-1.99-1.69-2.68.54-.88,1.41-1.59,3.08-3.11l-3.76.29-.56-3.02c-.13-.7,1.25-1.39,2.33-1.83.4-.46.77-1.82,1.38-1.93l3.41-.62-4.92-1.19,3.41-3.3-4.07,1.29c-.32-.18-1.37-1.45-1.11-1.86l1.34-2.09s-.63-.72-.63-.72l-3.98,3.36,1.76,1.29c.76.56-2.57,4.29-4.03,3-.63-.56-.99-1.98-1.38-3.67.58-.23-.81.32-1.15.46-.44.18,1.12,2.3.67,4.4-.16.72-2.03,1.2-2.96,1.27-.6.04-2.22-.77-2.34-1.34-.44-2.04,2.65-2.86,1.1-5.68-1.63,1.84-2.62,3.08-4.7,4.52-.79.55-3.06-1.43-2.93-2.4s1.29-2.4,2.17-2.89l1.25-.7c.2-.11.27-.56.07-.62l-1.79-.52c-.84-.25-2.23-.99-2.38-1.73-.21-1.04,1.39-2.61,2.26-2.44.69.13,1.97.45,1.89.14s-.18-1.51-.03-1.79c.61-1.09,3.4-.37,4.55.75l-.08-1.77c-.02-.44.86-.79,1.72-1.25l-1.39-.78c-.43-.24-.6-1.27-.78-2.03l-2.89,1.89c-.3-.33-.9-1.26-.65-1.52l1.65-1.77-3.49,1.77c-.81.41-2.64-1.03-2.44-2.02.29-1.48,1.31-2.23,3.18-2.85l-.26-.77c-1.16-.57-1.62-2.14-.85-3.01.56-.63,2.32-.56,3.6-.17l.11-2.05c.03-.6,2.24-.79,2.6-.32,1.28,1.65.62,4.31,1.16,3.6l.68-.88,1.32-1.72c.35-.46,1.47,1.32,1.98,1.59l1.15.62c.24.13.04-.75-.05-.9l-1.88-1.77c-.37-.35.7-1.47.89-1.66l-2.52-1.25c-.55-.27.22-2.42.85-2.43l2.63-.07.64-2.34c.2-.74,2.6-.85,2.92-.16l1.41,2.98,1.19-2.6c.33-.72,2.99-.41,3.11.37s-.01,1.91-.19,3.54l3.69-2.05.69,2.85,3.57-.12-1.08-1.56c-.28-.41.8-1.45,1.12-1.75l-2.47-.49c-.49-.1-1.07-1.43-.7-1.77l1.54-1.41c-.21-.91-.1-2.7.6-3.17.87-.58,2.97-.01,3.8.44.33-.76,1.81-2.04,2.72-1.75,1.53.48,1.98,1.6,1.66,3.84l1.49-.05c-.25-1.98.16-3.93,1.29-5.89l4.31.18-1.67-2.77c-.43-.71,1.96-2.09,2.78-1.91l1.73.38c.44.1.49,1.21.16,1.53l-.87.85c-.22.22.63.73.85.96s.46-1.23.69-1.44l2.06-1.98c-1.45-2.07-5.44-3.55-7.67-1.68-1.93,2.01-2.29,5.01-4.93,4.9-.98-.04-2.15-1.29-3.05-2.62l-5.9.71c-.43.05-1.74-.82-2.03-1.14s.18-.84.99-1.91l-7.34-3.36-2.85,2.65c.45.13,1.47.15,2.15.04.79-.14,2.8.7,2.81,1.5s-1.41,1.97-2.21,2.52l1.42,1.98c.42.59-1.24,2-1.96,2.15-1.67.36-1.88-3.26-3.88-2.96,1.03,1.31,2.11,3.54,1.58,4.74-.26.59-2.73.81-3.08.26l-1.64-2.59-1.02,4.67-1.92-.92c-.34-.16-.75.2-1.72.68-1.34.67-3.57-1.79-3.24-3.3l3.71-1.93-2.9.2c-.69.05-2.39-1.15-2.02-1.71.61-.94,2.31-2.1,2.84-2.32l-1.46-2.33-1.55,2.44c-.39.61-2.08-.79-2.31-1.7-.09-.21-1.42-.11-1.37.29l.2,1.88c.1.88.95,2.26.51,2.77s-1.78,1.27-2.45,1.56l-2.1.91c-.53.23-1.74-.77-2-1.32l.18-4.75-2.75,3.38c-.67.16-2.36.14-3.06-.1s-1.22-2.29-.64-2.76l2.82-2.3-3.71-.75c.27-1.36.83-2.69,1.94-3.9.78-.85,2.9-.27,4.24.37l-1.09-2.45c-.26-.57,1.94-1.03,2.55-.87l1.72.45c.4.11-.05-1.21-.28-1.44-.5-.14-2.26-.54-2.15-1.01l.54-2.39c-1.54.85-2.83,1.57-3.67,1.52s-2.09-2.08-1.55-2.73,1.9-1.27,3.42-2.01l-2.38-1.37c.15-2.29,3.76-4.76,5.42-4.07ZM289.51,28.34l-.03-2.16c-.02-1.32-.24-2.92-.56-4.05-.45,3.35-1.84,4.46-4.65,6.2h5.24ZM290.08,47.03c-3.25-1.72-3.12-5.86-6.16-6.03.88,3.66,2.51,6.38,5.11,9.38l1.05-3.35ZM282.59,48.34c.88-.52-.02-3.15-.94-3.83-.75-.55-3.09-.08-4.19.36l-.98,3.01,6.11.46ZM342.25,66.25l2.44,1.75-.8-2.78c-.18-.61,2.35-1.19,2.53-1.85l2.24-8.15c-.88,0-2.13,1.09-2.47,1.86-.24.54.14,1.33.3,2.26-3.89,2.19-7.32,4.22-8.15,8.4l3.92-1.49ZM306.25,91.59c-3.38.81-4.55-.69-4.46-2.21.05-.92,1.07-2.16,2.05-3.14l-1.47-2.75c-.35-.65,1.05-2.08,1.46-2.7.17-.26-.76-1.54-.94-1.29l-.9,1.26c-2.21,3.12.76,7.11-4.26,8.55-1.15,3.58.85,7.74,4,10.54,1.89-2.48,3.38-5.31,4.52-8.27ZM293.35,94.56c.11-3.73-.11-4.75-1.46-6.69-1.84.96-5.16-.18-5.6-2.02-.51-2.14-1.19-3.21-2.69-4.59l-.81,2.6,5.78,7.68c1.24,1.64,3.15,2.92,4.78,3.01ZM288.7,113.71c-.44-1.31-.98-3.04-.28-3.19l2.81-.61,1.63-2.22c.39-.53,2.45-.06,2.54.61l.35,2.52,1.99-1.1c.24-3.96-1-8.32-4.21-11-1.14-.95-4.22-.77-5.76-.62l-3.94-6.34-2.46-4.73c-.4-.09-1.83,1.39-1.99,2.4-.12.74.91,1.5,2.55,2.24l-1.07,2.56c-.29.68-2.45.7-3.04.62l.94,6.02c.19,1.18,1.56,3.69,2.12,4.22l3.37-1.48c.64-.28,4.6,2.09,4.1,4.26-.16.7-1.39,1.56-2.12,1.94l-2.22,1.18c.53,2.08,2.71,3.04,4.67,2.73ZM317.97,90.04c-1.67.04-2.71.31-4.21,1.02l-1.24.59c-.18.08-.08-.56-.08-.76v-1.22c-.83.58-1.51,2.42-1.51,3.52,2.1-.55,3.13-.69,5.25-.59l1.79-2.57ZM272.94,92.93c-1.15.93-2.38,1.85-2.71,1.45l-1.39-1.71-1.28-1.7c-.29-.38-1.72.6-1.59,1.05l.51,1.82c.35,1.24,1.51,3.04,2.5,3.47l5.87,2.55c-.33-2.87-.97-5.06-1.91-6.94ZM262.21,114.37c1.33.55,2.91,1.14,3.19.65l1.34-2.34c.35-.61,1.37-2.08,2.03-1.83l2.57.98-2.66-2.61c.95-1.85,3.76-2.6,6.73-1.38-.32-4.4-4.31-5.83-7.96-7.53l-4.49-3.78c-2.26-1.91-4.22-3.15-7.03-3.87l-2.79-.72,5.38,4.57c.62.52,1.57,2.48.92,2.82l-2.5,1.28c-1.41.72-3.08.82-4.9.32.12,1.65,1.61,4.13,3.17,4.88.65-1.07,1.51-2.38,2.05-2.1l1.97,1.03,2.15-1.22c.56-.31,2.04.47,2.74.97s1.93,2.64,1.25,3.11l-2.49,1.72,3.54.63c-.21,2.52-2.39,3.95-4.18,4.41ZM323.81,105.3l-.15-2.25c-.03-.39-1.8-.1-1.76.29l.62,6.16-4.72-.6.52-3.57c-.03-1.2-.76-1.16-.91.19-.06.72-1.79,2.63-2.2,2.06l-1.73-2.39-2.11.38c-.47.08-1.54-1.04-1.26-1.42l1.42-1.87-2.84-2.19c2.27-1.86,3.69-1.45,6.43-1.24l-6-2.71-2.58,5.18c-1.64,3.3-2.2,6.9-1.22,10.01,1.06-.47,2.85-.86,3.05-.23l.98,3.21c-.06,1.34.59,1.4.8.03.43-.94,1.22-2.19,1.84-2.25,1.75-.15,4.85,2.9,4.46,3.53l-1.69,2.72,2.17.99c.35.16.56.92,1.07,1.92,2.07-3.43,3.55-6.81,4.84-10.79l2.12-2.55c-.55-.98-1.08-2-1.12-2.62ZM245.19,107.96c.32.09,1.77-1.2,1.97-.94l.95,1.23.89,1.16c.13.16.23-.58.23-.79.08-2.72,1.29-2.63.23-4.57-.67-1.23-3.39-.82-3.2.18l.35,1.89c.05.25-.68.77-.87.6l-1.1-.97c-.5-.44-1.84-1.46-2.3-1l-1.85,1.87,4.69,1.34ZM332.91,109.37l1.77-3.86c.2-.44.46-1.5.03-1.51l-1.92-.02c-.41,2.89-2.08,4.73-4.91,5.11l-2.46,6.28c4.43-.16,6-2.69,7.51-5.99ZM367.72,108.47l3.42-1.81c.32-.17.55-.82.66-1.21.11-.36-1.75-.79-2.09-.63l-5.07,2.32,3.08,1.34ZM226.7,118.94l6.92,1.32c.35.07,1.27-1.12,1-1.36l-.91-.82c-2.35-2.12-4.55-4.45-6.08-6.91l-1.91.53,4.15,4.59-3.16,2.64ZM329.78,128.96c.21.01,1.15-.33.97-.42l-1.12-.58c-.71-.37-1.64-2.29-1.15-2.92,1.07-1.38,6.22-1.6,6.47-.9l1.19,3.25c.48-1.85.66-3.3,1.15-4.13,1.02-1.74,5.52.93,5.71.25l.4-1.39c.09-.32-.99-.74-1.33-.81l-4.68-1.05c-1.06-.24-1.52-2.88-.75-3.69.57-.6,1.84-.94,3.35-1.25.12.31.31-1.52-.12-1.56s-1.8-.01-2.24.24l-7.58,4.41c-9.52,5.53-7.45,10.26-8.49,10.52l-3.42.86c-.11-.61.16.89.17.96.99.2,2.06.51,1.82.85l-.84,1.22c-.23.34-.9,1.61-.51,1.71l1.69.46c.84.23-.35-1.72,1.33-4.01.38-.52,2.4-.18,2.67.41.58,1.24,2.16,3.38,4.06,2.16l-2.49-2.1c-.33-.47-.02-2.66.75-2.62l2.96.15ZM222.56,121.45l-5.43-3.53-1.89-3.06c-.16-.26-1.16-.67-1.49-.83-.18-.09-.15.74-.02.89l.66.76c1.19,1.36,1.67,2.79.53,4.42-.48.69-.76,2.14-.25,2.54.42.34,1.88.81,2.46.62l5.42-1.81ZM281.1,117.84c-.46-1.11-.88-2.68-1.38-2.57l-1.78.41c-.38.09-1.45.94-1.16,1.18l1.09.9,1.76,1.2c.4.27,1.74-.96,1.47-1.12ZM272.68,125.21c1.03-2.8,1.42-2.93,3.78-3.25l-.91-2.8c-3.22,1.46-4.69,5.03-3.83,5.51.35.2,1.66.95.96.55ZM351.62,126.2c.85-.09,3.01,1.52,3.21,1.78l2.14-2.77-3.42-2.06-6.71,2.47,2,4.95c.31-1.47.97-4.17,2.77-4.37ZM264.32,130.32c.24-.6,1.33-2.09,1.88-1.8l2.86,1.5.17-3.56-7.04,2.26c-.56.18-2.18-.08-2.29-.59l-.53-2.49c-1.84.94-1.86,2.46-1.3,4.73.31,1.26,1.26,3.07,2.01,2.52,1.2-1.82,2.57-2.97,4.24-2.56ZM260.31,144.02l2.37-.72c.18-.06-.06-.86-.28-.82l-1.38.23c-.48.08-1.78.33-2.04-.08l-1.19-1.82-1.37-2.1c-.26-.39.16-1.36.43-2.38-4.41-2.26-7.39.04-9.17-3.42-.55-1.08-2.19-1.83-2.87-1.5l2.36,3.17,1.73,1.45c.36.3-.92,1.75-1.36,1.58l-1.72-.7c-1.03-1.34-2.64-1.74-3.76-.42l6.36,7.98c2.72-.67,3.45.71,4.83,2.91.42-2.11,1.04-3.94,2.75-3.74,1.07.12,2.29,1.53,2.91,2.53l.76,1.21c1.11,1.77.38-3.26.63-3.33ZM235.38,139.79c.36-.81,2.83-.39,3.5.38.91,1.06.85,1.96-.25,3.5,1.11.77,2.75.8,4.93-.08l-7.38-9.56-2.4,2.39c.41.81,1.21,2.32.81,2.81l-1.84,2.23,1.42.58c.4.16.81-1.32,1.22-2.24ZM297.89,144.43c-.36-.27-1.13.79-.87.99l1.26.97c.69.53-.44,2.35-1.28,3.01-.68.53-2.54.06-3.32-.71l-3.14-3.11c.59-1.54.92-3.28.91-4.53-1.43,2.14-1.89,2.95-3.9,3.57,1.39,5.09,4.02,11.07,8.99,13.93l7.01,4.05c.33-5.91-.42-11.31-1.41-16.34-1.51.11-3.43-1.22-4.25-1.85ZM372.35,141.45l-5.11,1.31-2.24-2.22-.47,4.32c3.41-1.19,4.89-1.64,7.82-3.41ZM316.9,151.42l3.65-6.28c.15-.26-.89-1.75-.95-1.46s-.5,1.66-.79,1.73c-.92.22-2.27-.12-4.29-.58l2.38,6.59ZM357.99,148.49c.5-.27.36-2.96-.12-2.83l-1.99.53c-2.74.73-5.09,2.67-5.12,6.2l7.22-3.9ZM246.38,160.89c.34-1.79.23-3.42-.45-3.72l-2.69-1.2c-.49-2.13,2.4-4.86,5.07-4.21l-2.03-3.5-4.76-.56c-.25,1.11-.48,2.62-1.15,2.67l-3.19.27-1.8.15c-.24.02.59.72.63.69l2.35.44c.53.1.52,2.23-.01,2.35l-3.03.68,4.81,2.31,6.26,3.63ZM331.81,161.91l2.11-8.07c-2.08,1.15-2.83,1.66-3.84,1.81s-2.87-1.59-2.63-2.48c.2-.74,2.64-.64,2.93-.34l2.1-2.86c.11-.69-2.46-1.26-3.31-1.15l.96,2.79-3.89-.79c-5.02,6.15-4.92,11.83-3.49,19.88l3.92-3.2c1.5-1.23,4.59-3.51,5.13-5.58ZM376.96,154.89c-.62-.39-1.83-.99-1.77-1.46l.25-1.86-4.09-1.08c-1.67-.44-3.38-.41-5.37.26,2.19,2.78,5.46.3,7.92,6.09l3.05-1.95ZM287.12,155.54l-3.64-4.99-3.36,3.15c1.66,1.5,4.51,2.18,7,1.84ZM337.21,160.6l6.41-3.82-2.86-2.71c-.36.76-1.34,1.67-2.74,2.32-.64.55-.94,2.48-.81,4.2ZM300.57,182.75c2.31-8.75-4.64-17.74-11.19-21.22-1.74-.93-4.94-1.77-6.75-1.93l-4.23-.38-.75,2.83,3.66-.45c.72-.09,1.67,1.9,1.19,2.42l-1.54,1.64,5.04,7.35c1.54,2.25,3.96,3.8,6.33,5.12l8.24,4.61ZM346.85,175.68c8.03-2.48,7.89-7.13,8.08-7.16l2.51-.41.61-2.18,2.24-.57c.49-.12,2-.82,1.78-.76-3.28-1.97-2.13-5.23-5.4-4.92l.93,2.7c.33.96-3.24,4.28-5.06,2.85-.77-.61-1.25-2.46-1.31-3.54l-.11-2.2c.02.42-10.22,2.15-14.48,7.78l-5.81,7.69c-2.87,3.79-5.52,7.68-4.78,12.8l6.15-2.38c6.62-2.56,5.84-6.22,11.64-8.04,1.54-5.62,4.09-13.5,7.74-12.33-2.24,3.95-3.68,6.7-4.74,10.66ZM267.59,166.17l-2.43-4.4c-.97.05-1.83,2.27-1.05,3.33.9,1.23,3.01,1.66,3.49,1.08ZM232.93,174.61l-1.27,3.21,2.86-2.97,5.52-2.92c-.36-1.36-.41-3.16.28-3.7.6-.46,2.13-.67,3.19-.98l1.7-.5c.32-.1-.19-.78-.49-.91l-1.23-.51c-.72-.3-2.43-1.34-2.95-.77l-2.05,2.31-2.45,1-1.12,2.72c-.2.5-2.12.37-2.4-.09l-1.24-2.01-.04,3.17-4.35.63c.63,2.41,7.03-.19,6.04,2.31ZM276.81,170.39c-.64-1.92-1.34-2.83-2.61-4.27l-1.43-2.36-2.3,4.48,6.34,2.15ZM369.6,180.46l-2.93-4.11-3.03,1.78-3.32-.75c-1.62-1.86-4.77-3.02-7.25-1.24l-4.9,3.51,7.67,1.61,5.44-1.67c1.52-.47,3.3.39,4.43,1.89l3.88-1.01ZM376.46,185.76l1.28-1.5-5.49-4.34c-.68.25-1.03,1.42-.43,1.6.94.62,1.6,1.09,1.31,1.3l-1.23.89.9.93,1.17-.62,2.49,1.73ZM371.64,188.89c-.51-.82-1.08-1.55-1.62-1.53-3.07.12.49.91,2.06,6.01.31-.25,1.26-1.77.93-2.29l-1.37-2.19ZM305.43,209.16c.66-3.56.61-7.16-.63-10.51-.49,3.68-.69,6.94.63,10.51ZM150.24,254.14l4-4.77,1.51-19.98c-2.41,3.13-5.55,6.72-5.54,10.44l.03,14.31ZM142.36,266.65c2.35-4.26,5.41-7.77,6.43-11.51,1.01-3.71-.16-8.47.04-12.24-1.57,3.52-2.93,7.1-3.68,10.66l-2.78,13.09ZM154.52,266.27c1.1-1.08,2.85-3.07,3.11-4.38l2.5-12.64c-2.61,2.75-4.12,5.65-5.45,8.95l-.17,8.07ZM166.07,266.68l4.51-8.92c-3.97,1.87-5.76,4.86-7.04,8.5l-1.86,5.27c1.58-1.03,3.41-2.89,4.4-4.84ZM153.52,267.25l-.83-5.24c-2.1,4.06-3.6,7.96-4.22,12.66l5.05-7.42ZM161.85,267.18l-.56-1.03c-3.04,3.32-3.84,6.5-3.42,10.42,2.44-2.99,2.84-5.36,3.99-9.39Z" fill="#243b2f"/>
    <path d="M227.62,277.3l19.42-1.7,3.57-2.63c1.09-.8,2.61-2.96,3.98-4.55l-13.81-2.5,16.33-1.69c3.93-.41,7.55-3.12,10.82-4.85l-5.99-1.03c3.36-3.04,7.22-.56,10.39-1.54l12.07-3.74,6.8-2.16-8.72-.38c4.12-1.38,7.87-.31,11.74-.49l8.73-.41-11.3,3.71c-12.51,4.1-27.02,8.98-35.2,19.18-4.62,5.75-4.1,13.06.98,18.29,11.64,12.02,31.11,16.63,47.38,20.63l-8.74,3.77c-11.19-2.45-21.75-5.85-31.62-11.55-9.1-5.25-17.33-13.48-15.71-23.95-7.17-.44-13.73-.46-21.12-2.42Z" fill="#6a7f50"/>
    <path d="M221.65,307.5l27.66-3.97,5.31-1.85c2.01.93,4.17,3.49,4.44,6.18-12.75.38-24.74,1.18-37.41-.36Z" fill="#6a7f50"/>
    <path d="M241.46,323.2c10.85-1.67,21.6-3.07,32.2-6.4,1.21-.38,2.49-2.93,9.01,2.22-13.8,3.48-27.14,5.28-41.21,4.18Z" fill="#6a7f50"/>
    <path d="M177.8,261.7l-4.26,8.51c-.29.64-2.13.18-2.96-.26l14.2-22.81,2.59-4.63-.5-3.14c-.13-.83,2.58-1.16,3.28-1.03l.03-3.93,2.42-.21c-.11-2.09.79-3.07,2.17-4.14l2.52-1.95,3.04-2.22-3.02,6.45-3.27,6.59-2.18.74c-.38.13.87,1.26.88,1.66.03,1.27-2.57,2.99-4.24,1.99l-2.59,4.92-8.1,13.45Z" fill="#233a2e"/>
    <path d="M246.67,293.2l-26.74-.82-.78-1.37,21.74-1.87c1.46-.13,2.9-1.18,5.02-2.42l.76,6.49Z" fill="#6a7f50"/>
    <path d="M247.24,50.93c-.5,1.63-3-1.43-5.57.79-.41.35-2.05,1.16-2.23.68l-.8-2.1c-.2-.52-.3-2.28.23-2.34l2.75-.31c-.94-1.54-1.13-3.65.4-5.06.68-.63,2.18-1.29,2.8-.95s1.68,1.5,1.86,2.18c.32,1.27-4.05,3.82-2.9,4.14l1.62.45c1.55.43,2.29,1.05,1.84,2.52Z" fill="#233a2e"/>
  </g>
</svg>